<?xml version="1.0" standalone="no"?>
<!DOCTYPE svg PUBLIC "-//W3C//DTD SVG 20010904//EN"
 "http://www.w3.org/TR/2001/REC-SVG-20010904/DTD/svg10.dtd">
<svg version="1.0" xmlns="http://www.w3.org/2000/svg"
 width="700.000000pt" height="700.000000pt" viewBox="0 0 700.000000 700.000000"
 preserveAspectRatio="xMidYMid meet">
<metadata>
Created by potrace 1.11, written by Peter Selinger 2001-2013
</metadata>
<g transform="translate(0.000000,700.000000) scale(0.100000,-0.100000)"
fill="#000000" stroke="none">
<path d="M3650 6101 c-73 -23 -135 -73 -168 -138 -21 -39 -72 -240 -76 -298
-1 -5 -10 -14 -22 -20 -61 -31 -137 -122 -155 -189 -25 -88 -29 -445 -6 -510
12 -35 12 -47 -4 -97 -24 -77 -29 -125 -34 -346 -3 -104 -10 -212 -16 -241 -6
-28 -9 -62 -8 -75 1 -12 -2 -53 -9 -92 -6 -38 -14 -110 -17 -160 -4 -49 -8
-99 -9 -110 -12 -87 -17 -140 -20 -200 -7 -121 -19 -243 -25 -254 -6 -9 -81 6
-94 19 -3 3 -8 34 -12 70 -9 91 -41 212 -76 289 -27 59 -84 158 -99 171 -3 3
-22 26 -41 51 -73 97 -137 159 -218 210 l-84 53 39 30 c64 51 197 186 251 256
130 167 216 411 208 590 -7 147 -106 348 -219 444 -112 95 -291 169 -481 197
-33 5 -71 11 -85 15 -14 3 -118 7 -231 8 l-206 3 -44 30 c-80 55 -133 77 -234
98 -66 14 -230 13 -284 -1 -116 -31 -186 -81 -226 -163 -26 -52 -55 -191 -57
-268 -1 -52 -1 -52 -62 -95 -106 -73 -173 -131 -404 -346 -139 -129 -156 -159
-157 -267 0 -90 16 -134 71 -190 64 -67 175 -99 257 -77 21 6 69 8 108 5 80
-7 79 -6 45 -103 l-22 -65 -95 -57 c-52 -32 -113 -77 -137 -100 -44 -44 -92
-128 -92 -161 0 -32 -42 -109 -88 -162 -125 -142 -134 -310 -23 -422 42 -42
123 -81 183 -89 26 -4 48 -10 48 -15 0 -4 -11 -53 -25 -109 -23 -95 -67 -324
-80 -415 -23 -165 -38 -230 -56 -256 -70 -98 -80 -230 -25 -314 14 -21 14 -34
0 -117 -22 -137 -26 -206 -17 -268 11 -72 9 -81 -32 -107 -42 -28 -80 -83 -98
-143 -14 -48 -14 -74 -4 -130 6 -32 3 -37 -32 -61 -25 -18 -49 -48 -70 -90
-27 -54 -32 -74 -30 -124 6 -155 107 -255 294 -291 11 -2 31 -6 45 -9 29 -6
208 -7 218 -1 4 2 50 7 102 11 121 9 127 9 247 30 98 18 102 18 140 -1 29 -14
60 -19 128 -18 105 0 180 21 238 66 36 28 43 30 100 24 34 -3 71 -8 82 -10 94
-20 130 -32 195 -64 65 -32 84 -37 145 -37 60 0 81 5 138 33 37 18 67 37 67
41 0 5 16 16 35 25 33 16 36 16 83 -8 125 -63 259 -51 355 33 l36 33 37 -36
c20 -20 62 -48 93 -63 46 -21 70 -26 136 -26 102 1 157 24 231 98 30 30 59 55
64 55 5 0 54 -18 107 -39 130 -52 206 -57 281 -19 15 8 26 9 30 2 17 -24 83
-66 135 -83 81 -28 166 -22 245 18 34 17 70 41 81 53 21 21 21 22 58 4 63 -30
155 -53 205 -50 108 6 221 95 242 189 3 17 9 41 12 55 3 14 6 51 5 83 0 31 2
57 4 57 2 0 15 -26 30 -57 45 -99 157 -228 243 -280 43 -27 149 -61 206 -66
50 -5 155 17 204 42 31 16 46 18 79 11 101 -23 226 9 300 78 l31 29 63 -31
c56 -27 73 -31 149 -31 110 0 176 23 233 79 73 72 87 112 83 249 -2 64 0 117
3 118 105 14 188 66 229 144 23 45 40 127 35 172 l-5 40 42 7 c127 20 220 132
222 267 1 48 -5 71 -30 119 l-30 60 41 19 c128 57 192 221 137 349 -27 62 -90
123 -151 145 -67 24 -180 56 -214 60 -19 2 -47 20 -76 48 -32 32 -62 50 -105
63 -32 11 -60 20 -62 21 -5 4 90 170 129 225 21 30 64 75 95 100 67 53 115
133 139 231 23 91 23 203 2 259 -19 50 -17 103 7 185 22 77 11 404 -17 495 -7
25 -15 88 -16 140 -6 180 -16 267 -47 415 -38 177 -138 419 -215 522 -21 29
-39 56 -39 60 -1 28 -188 199 -251 229 -194 95 -247 111 -368 117 -84 3 -188
-7 -296 -30 -16 -3 -40 -7 -52 -9 -21 -2 -42 -5 -136 -20 -86 -14 -218 -84
-296 -158 -43 -41 -161 -208 -161 -229 0 -6 -33 -45 -72 -86 -40 -42 -84 -90
-98 -106 -29 -35 -110 -151 -110 -158 0 -2 -17 -35 -38 -73 -44 -81 -105 -221
-139 -319 -28 -81 -89 -321 -98 -381 -3 -22 -10 -55 -15 -72 -5 -18 -7 -32 -5
-32 3 0 0 -11 -5 -25 -5 -13 -16 -77 -25 -142 -9 -65 -18 -129 -20 -143 -8
-56 -18 -273 -18 -388 1 -121 0 -124 -21 -118 -11 3 -45 8 -73 12 l-53 7 6
151 c3 83 5 158 6 166 0 8 9 49 19 90 10 41 21 89 24 105 5 29 7 43 21 150 4
28 11 61 16 75 6 14 12 41 15 60 2 19 11 66 20 104 13 52 14 80 7 116 -6 27
-6 59 -2 76 18 62 28 227 15 241 -3 2 3 23 13 46 19 44 27 82 35 181 3 32 8
63 12 69 3 5 7 68 9 138 4 155 -11 201 -93 289 l-53 57 -5 85 c-2 47 -14 114
-25 149 -23 77 -86 169 -135 199 -68 42 -196 62 -265 41z m164 -81 c80 -22
151 -110 176 -219 7 -29 13 -93 14 -141 l1 -87 39 -19 c71 -34 126 -144 119
-239 -2 -22 -5 -65 -7 -95 -2 -30 -7 -68 -11 -83 -4 -15 -8 -49 -10 -75 -3
-72 -16 -124 -37 -159 -13 -21 -17 -40 -13 -54 11 -34 8 -159 -5 -209 -15 -62
-15 -58 -6 -131 5 -42 4 -73 -2 -86 -6 -10 -13 -39 -17 -63 -3 -25 -13 -67
-20 -94 -8 -27 -17 -76 -20 -110 -4 -33 -17 -107 -31 -163 -34 -141 -34 -139
-49 -467 -5 -111 -4 -118 12 -111 10 4 46 10 80 13 65 4 123 -15 169 -55 54
-49 52 -51 46 39 -14 183 -3 488 23 668 2 14 7 45 10 70 9 68 83 417 101 480
102 348 220 572 400 758 51 53 96 108 99 122 3 14 23 51 43 82 109 164 233
242 427 268 84 11 87 11 203 33 96 18 251 15 327 -7 111 -33 243 -109 333
-193 45 -43 82 -83 82 -89 0 -6 15 -31 33 -55 100 -132 212 -429 233 -620 3
-30 7 -56 9 -59 4 -6 14 -151 19 -286 2 -45 8 -90 14 -100 5 -11 9 -57 10
-104 0 -47 5 -104 10 -127 5 -24 8 -57 6 -75 -1 -18 -5 -62 -8 -98 -2 -36 -11
-81 -19 -100 -20 -51 -21 -140 -2 -186 21 -49 21 -150 -1 -224 -25 -86 -63
-147 -116 -186 -64 -47 -121 -123 -198 -264 -35 -63 -71 -127 -81 -142 l-19
-26 47 -16 c26 -9 56 -16 69 -16 51 0 111 -38 152 -97 17 -24 28 -31 49 -28
24 2 60 -5 215 -46 132 -34 183 -213 90 -316 -38 -41 -76 -60 -137 -68 -79
-10 -79 -10 -35 -67 58 -77 80 -127 80 -184 0 -63 -31 -118 -88 -158 -36 -26
-53 -31 -110 -32 -36 -1 -79 2 -94 7 l-28 7 30 -58 c74 -146 2 -291 -158 -316
-58 -9 -74 -13 -80 -19 -3 -3 -4 -44 -3 -93 5 -163 4 -176 -18 -222 -39 -80
-110 -119 -218 -120 -78 0 -141 26 -189 79 l-37 39 -38 -57 c-22 -34 -54 -66
-78 -79 -51 -29 -154 -39 -215 -22 -41 11 -47 10 -87 -13 -146 -82 -305 -50
-442 89 -79 79 -113 132 -144 224 -12 36 -26 65 -30 65 -14 0 -118 -37 -126
-45 -5 -4 -4 -29 0 -56 10 -54 -4 -163 -26 -204 -33 -60 -103 -100 -177 -100
-45 0 -137 34 -191 71 -32 23 -48 29 -51 20 -9 -28 -63 -78 -109 -101 -61 -32
-158 -34 -216 -5 -42 20 -97 68 -114 99 -10 18 -12 18 -44 -7 -35 -26 -94 -44
-137 -41 -29 2 -103 25 -119 36 -21 16 -117 49 -158 54 -38 5 -41 3 -57 -33
-35 -76 -144 -134 -240 -127 -68 5 -137 42 -173 91 -34 47 -86 76 -93 54 -3
-8 -20 -31 -39 -51 -75 -84 -173 -96 -297 -37 l-76 36 -54 -24 c-30 -13 -57
-29 -61 -35 -4 -6 -25 -23 -48 -38 -61 -39 -149 -37 -232 5 -33 16 -82 35
-110 42 -27 7 -61 17 -75 22 -14 4 -61 11 -104 14 -44 3 -82 8 -86 10 -4 2
-22 -11 -40 -30 -72 -74 -233 -99 -335 -52 -46 22 -54 22 -103 11 -30 -7 -74
-15 -100 -19 -25 -3 -48 -8 -52 -10 -6 -4 -117 -13 -245 -20 -44 -3 -100 -7
-125 -9 -49 -4 -151 14 -217 39 -139 53 -178 223 -76 331 16 17 46 37 66 45
41 14 43 22 22 59 -19 33 -19 118 0 162 13 33 54 75 103 108 25 16 28 53 18
205 -2 39 2 104 9 145 26 148 26 162 0 215 -40 79 -30 166 29 235 22 27 28 52
51 220 28 202 63 379 110 556 19 73 35 134 35 137 0 3 -15 2 -33 -3 -65 -14
-140 -5 -194 24 -75 41 -113 104 -113 186 0 47 43 133 90 180 46 46 86 120
100 185 21 94 58 135 209 227 l103 63 28 77 c26 72 58 223 49 232 -2 3 -31 -3
-64 -11 -43 -11 -73 -13 -105 -7 -30 6 -65 5 -105 -3 -50 -10 -69 -10 -110 2
-104 29 -161 133 -134 240 15 59 12 56 347 361 53 47 160 128 224 169 46 29
47 32 48 80 3 109 31 249 59 296 32 52 108 98 188 114 37 7 158 7 208 0 101
-15 190 -53 255 -107 l35 -30 205 0 c113 0 225 -3 250 -8 25 -5 65 -11 90 -15
176 -25 376 -112 466 -202 29 -29 114 -156 114 -170 0 -5 11 -38 25 -74 31
-77 35 -131 18 -223 -30 -157 -82 -286 -165 -408 -38 -56 -157 -182 -291 -305
-37 -34 -67 -67 -67 -72 0 -5 49 -39 108 -75 63 -38 127 -86 154 -114 190
-208 278 -397 291 -635 2 -37 6 -69 8 -71 2 -2 22 -5 44 -7 53 -4 101 -28 154
-78 24 -23 44 -41 45 -41 0 0 0 42 0 92 -1 51 3 129 7 173 5 44 11 114 13 155
4 78 14 177 22 220 3 14 9 78 14 142 4 65 11 122 15 128 4 6 8 41 10 78 2 37
6 78 9 92 3 14 8 116 11 228 2 112 7 217 10 235 3 18 7 39 9 47 1 8 10 39 20
68 17 50 17 55 1 95 -18 45 -23 194 -11 381 9 138 49 206 154 260 23 12 32 23
32 42 0 14 9 62 21 107 11 45 22 94 24 109 6 45 47 119 82 147 61 48 124 57
217 31z"/>
<path d="M3724 5812 c-3 -15 -9 -37 -14 -49 -9 -21 -69 -304 -76 -353 -14
-107 -26 -129 -45 -87 -7 15 -16 27 -21 27 -5 0 -19 11 -32 25 -20 21 -25 23
-35 11 -10 -12 -20 -95 -21 -166 -2 -183 0 -198 25 -218 14 -11 33 -19 43 -17
9 2 94 4 187 4 94 1 175 5 182 9 13 8 25 87 37 247 3 33 7 69 9 80 3 11 -1 29
-8 38 -12 17 -16 16 -65 -18 -29 -20 -54 -34 -57 -31 -3 2 -6 38 -8 78 -4 113
-18 284 -29 362 -10 69 -61 110 -72 58z"/>
<path d="M5530 5699 c-52 -10 -128 -23 -167 -28 -83 -10 -150 -40 -204 -88
-46 -42 -95 -117 -104 -161 -5 -23 -35 -60 -104 -130 -112 -112 -170 -191
-234 -317 -102 -203 -140 -320 -207 -635 -32 -153 -34 -163 -46 -250 -8 -61
-8 -61 -20 -180 -16 -159 -10 -520 11 -640 3 -14 8 -43 11 -65 3 -22 17 -84
30 -138 110 -445 288 -659 564 -681 48 -3 82 0 179 19 13 2 64 29 112 60 48
30 111 65 141 77 29 12 67 33 83 48 17 15 52 42 78 59 56 38 151 130 227 222
55 65 230 325 230 341 0 9 89 159 99 168 3 3 25 30 48 62 23 31 63 71 87 88
73 53 103 158 66 231 -18 35 -20 53 -16 142 3 56 5 104 7 107 1 3 1 9 0 14 -1
4 3 14 10 22 19 24 16 247 -6 359 -13 66 -14 86 -20 230 -9 239 -48 437 -119
602 -44 104 -64 138 -133 228 -32 42 -69 92 -83 110 -14 19 -45 44 -70 56 -25
12 -73 35 -107 52 -82 39 -202 45 -343 16z m252 -551 c122 -80 203 -255 223
-479 1 -15 6 -32 10 -39 14 -23 19 -175 10 -285 -7 -70 -7 -68 -1 -123 4 -33
1 -42 -8 -39 -10 4 -14 -12 -15 -61 -4 -151 -9 -204 -20 -215 -6 -6 -11 -22
-11 -34 0 -13 -7 -34 -15 -47 -9 -13 -27 -62 -40 -110 -52 -179 -120 -322
-226 -476 -124 -180 -264 -295 -464 -380 -44 -19 -90 -42 -102 -51 -20 -15
-30 -15 -85 -5 -86 17 -125 39 -133 76 -4 16 -6 31 -4 32 1 2 -8 22 -20 46
-38 75 -82 213 -96 302 -20 128 -27 458 -13 595 7 61 26 175 42 255 3 14 11
50 17 80 50 249 111 434 155 471 20 17 27 5 50 -84 26 -99 74 -192 99 -192 34
-1 60 -27 123 -121 56 -85 101 -129 88 -86 -28 89 -98 387 -110 462 -7 52 -13
143 -12 202 2 98 5 110 29 146 46 66 95 99 237 158 48 21 68 23 162 20 73 -2
115 -8 130 -18z"/>
<path d="M1213 5625 c-27 -12 -33 -21 -43 -72 -7 -32 -14 -111 -15 -175 l-1
-118 -83 -50 c-72 -44 -182 -122 -217 -155 -6 -5 -29 -26 -50 -45 -21 -19 -91
-82 -154 -139 -63 -57 -117 -106 -119 -108 -10 -7 67 11 114 28 28 9 66 20 85
24 l35 7 -22 -21 c-13 -12 -23 -27 -23 -33 0 -6 9 -4 23 4 57 38 158 98 164
98 4 0 49 21 100 46 114 56 130 55 104 -2 -10 -22 -21 -63 -25 -90 -3 -27 -8
-62 -10 -79 -2 -16 -7 -61 -11 -100 -13 -144 -41 -298 -61 -336 -7 -14 -20
-55 -29 -91 -15 -60 -20 -67 -58 -88 -23 -13 -49 -29 -57 -35 -8 -7 -35 -23
-60 -37 -127 -68 -151 -94 -129 -142 11 -24 9 -30 -20 -60 -20 -21 -29 -38
-25 -49 9 -24 -22 -68 -70 -101 -23 -15 -49 -41 -59 -57 -16 -28 -15 -29 8
-35 18 -4 39 3 77 29 98 64 226 131 272 143 24 6 27 4 22 -17 -42 -201 -51
-256 -61 -372 -3 -32 -20 -119 -39 -195 -19 -75 -40 -162 -45 -192 -6 -30 -14
-66 -16 -80 -3 -14 -12 -68 -21 -120 -8 -52 -17 -108 -20 -125 -3 -16 -7 -50
-10 -75 -3 -25 -7 -56 -9 -70 -2 -14 -7 -47 -10 -75 -10 -75 -16 -109 -20
-114 -3 -2 -14 4 -25 14 -34 30 -33 10 0 -29 31 -35 32 -36 26 -116 -4 -44 -8
-85 -11 -92 -2 -7 -6 -35 -9 -63 -3 -27 -9 -70 -14 -95 -4 -25 -5 -58 -1 -75
4 -16 7 -83 8 -148 1 -74 5 -116 11 -112 5 3 20 40 32 81 13 42 30 83 38 92
48 52 98 201 105 310 2 24 6 46 9 49 6 6 11 -53 6 -72 -2 -5 -5 -49 -8 -97 -4
-92 8 -117 27 -55 9 29 13 49 26 116 12 63 27 92 44 85 61 -27 189 -73 201
-74 13 0 13 -1 0 -10 -13 -9 -13 -11 0 -20 20 -12 148 -42 180 -42 41 1 300
69 394 103 221 80 465 249 712 494 191 190 301 383 321 567 10 90 10 267 1
328 -14 90 -54 179 -124 275 -88 121 -120 150 -242 223 -152 90 -200 114 -296
147 -112 37 -116 40 -72 55 26 8 38 19 43 38 3 15 13 33 22 40 46 37 154 105
178 111 16 4 27 11 25 14 -1 4 35 37 80 74 228 183 326 340 372 598 9 45 -34
168 -81 237 -103 151 -444 225 -903 195 l-105 -7 -17 38 c-18 37 -78 77 -154
100 -45 14 -174 12 -211 -3z m900 -479 c49 -15 84 -39 115 -78 8 -10 16 -42
19 -72 8 -80 -25 -133 -167 -268 -127 -121 -179 -162 -240 -183 -22 -8 -69
-30 -103 -50 -70 -38 -324 -155 -340 -155 -5 0 -7 10 -3 23 3 12 18 85 31 162
14 77 35 190 46 252 37 207 71 297 117 314 51 20 167 48 222 54 30 4 56 8 57
9 1 1 45 3 98 5 65 1 112 -3 148 -13z m-409 -1253 c291 -55 470 -158 545 -315
51 -108 66 -258 36 -371 -52 -201 -243 -464 -485 -668 -70 -59 -176 -139 -184
-139 -3 0 -22 -12 -43 -26 -53 -36 -199 -109 -280 -140 -110 -41 -186 -56
-235 -45 -24 5 -59 12 -79 15 -51 8 -89 24 -89 37 0 18 49 232 81 354 38 149
96 400 104 455 3 25 10 63 15 85 5 22 11 54 15 72 3 18 10 45 16 60 6 15 33
138 60 273 27 135 56 268 64 297 15 49 17 51 63 61 68 14 312 11 396 -5z"/>
<path d="M3596 4848 c-44 -4 -85 -13 -92 -20 -29 -29 -44 -132 -49 -338 -3
-114 -8 -218 -11 -231 -11 -52 -27 -218 -28 -294 -1 -44 -5 -85 -9 -92 -4 -6
-10 -49 -12 -95 -6 -85 -24 -263 -32 -308 -10 -55 -12 -504 -2 -516 9 -12 17
-65 18 -132 1 -41 21 -33 21 8 0 34 9 62 19 55 6 -3 27 95 36 172 2 12 8 37
14 55 5 18 13 51 16 73 8 55 15 75 26 75 10 0 11 -5 14 -105 1 -43 9 -84 20
-104 9 -19 15 -47 13 -63 -3 -16 -1 -25 3 -21 10 10 59 160 59 180 0 8 15 20
34 28 46 20 50 28 53 110 2 39 7 99 13 135 5 36 12 124 15 195 8 226 13 271
44 399 22 87 26 108 36 201 4 33 13 79 21 103 8 23 14 59 14 80 0 20 6 48 13
62 10 18 10 38 3 73 -6 35 -5 64 4 100 19 79 23 143 11 166 -25 45 -134 64
-285 49z"/>
<path d="M4019 3157 c-22 -73 -25 -77 -56 -83 -18 -3 -36 -10 -39 -15 -3 -5
-10 -7 -15 -4 -5 4 -9 2 -9 -2 0 -5 -9 -10 -20 -11 -49 -4 -50 -5 -39 -19 14
-17 33 -17 23 0 -4 7 -3 9 2 4 5 -5 9 -12 9 -16 0 -14 64 -63 75 -56 13 8 20
-25 23 -106 l2 -67 28 17 c16 9 36 23 46 31 63 55 57 53 93 37 65 -29 97 -39
106 -33 5 3 -2 37 -15 75 l-23 71 46 59 c25 33 43 64 39 71 -4 7 -34 9 -83 7
-70 -4 -78 -2 -99 21 -13 14 -23 28 -23 32 0 4 -11 20 -24 35 l-25 29 -22 -77z"/>
<path d="M2923 3051 c-17 -58 -18 -59 -73 -77 -30 -10 -61 -17 -67 -15 -25 4
-2 -25 47 -59 l49 -35 1 -73 0 -73 32 23 c18 13 40 31 49 41 18 19 49 23 65 8
5 -6 24 -13 43 -16 19 -3 38 -8 43 -11 12 -7 10 4 -11 73 -10 34 -16 63 -12
65 16 7 81 97 74 101 -5 3 -40 7 -77 9 l-69 3 -29 47 c-17 27 -34 48 -39 48
-5 0 -17 -26 -26 -59z"/>
<path d="M5945 2752 c-22 -3 -51 -25 -115 -91 -47 -48 -112 -107 -144 -131
-33 -24 -70 -53 -83 -64 -13 -11 -36 -26 -51 -33 -23 -10 -15 -11 59 -8 86 5
158 12 199 20 12 2 48 7 79 11 31 3 65 8 76 10 19 4 90 13 258 34 45 6 93 13
107 15 14 2 48 7 75 10 28 4 57 8 65 10 8 2 42 7 75 11 114 12 127 18 63 30
-24 4 -45 8 -48 9 -3 0 -12 5 -20 10 -8 5 -64 10 -125 11 -60 1 -121 4 -135 8
-14 3 -45 8 -69 11 -61 7 -73 22 -25 30 60 10 89 21 89 32 0 6 3 15 8 19 17
17 4 24 -47 24 -30 0 -56 5 -58 10 -3 10 -170 19 -233 12z"/>
<path d="M4410 2734 c-36 -6 -121 -23 -150 -31 -29 -8 -879 -11 -930 -3 -19 3
-59 2 -88 -1 -30 -4 -97 -10 -150 -14 -109 -7 -159 -16 -216 -40 -33 -14 -117
-31 -306 -62 -26 -4 -55 -25 -115 -82 -220 -212 -424 -363 -611 -452 -89 -41
-233 -92 -298 -104 -20 -4 -38 -10 -40 -14 -5 -8 302 -6 476 3 113 6 142 11
308 54 41 11 99 23 128 26 30 3 58 8 63 12 16 9 52 16 129 24 70 8 142 24 165
38 6 4 27 8 48 9 21 2 46 7 56 12 10 6 31 13 47 16 16 2 38 7 49 9 11 2 54 7
95 11 41 3 86 8 100 10 14 2 61 7 105 10 44 3 100 11 125 16 25 6 74 13 110
15 36 2 81 6 100 8 57 8 168 16 270 20 52 2 107 9 121 15 25 9 46 13 121 25
15 3 33 8 40 13 7 4 45 9 83 10 218 6 287 13 385 37 144 36 139 34 104 55 -57
35 -178 193 -228 299 -31 64 -32 65 -96 56z"/>
<path d="M6100 2280 c-48 -8 -81 -15 -146 -28 -22 -5 -48 -6 -57 -3 -9 3 -69
6 -134 5 -90 -1 -144 -7 -228 -28 -104 -25 -132 -32 -264 -70 -72 -22 -72 -21
-118 24 -37 38 -41 40 -72 29 -18 -6 -45 -22 -59 -36 -22 -20 -24 -27 -14 -43
7 -11 8 -21 2 -25 -5 -3 -13 2 -18 11 -7 13 -9 10 -8 -14 1 -22 4 -28 13 -20
8 6 19 6 32 -1 30 -17 34 -14 27 22 -4 23 -3 28 4 15 6 -10 21 -15 40 -14 42
3 58 -19 82 -111 23 -91 28 -269 9 -373 -25 -137 -80 -250 -123 -250 -17 0
-38 40 -38 71 0 11 -7 31 -16 44 -11 17 -13 29 -6 38 5 6 8 50 7 97 -2 47 1
103 6 125 4 22 10 51 12 65 11 58 38 101 62 97 5 -1 11 6 13 17 4 19 -73 105
-95 106 -29 0 -80 -143 -104 -292 -11 -71 -8 -240 4 -294 17 -72 110 -180 180
-209 38 -16 91 -13 129 6 9 5 28 35 43 66 14 32 30 66 35 75 6 10 10 29 10 44
0 14 4 33 10 43 11 21 23 101 22 151 -1 157 -3 174 -12 160 -7 -11 -9 -2 -4
30 4 33 3 41 -5 30 -7 -9 -11 -10 -11 -3 0 6 4 14 9 17 9 6 -6 86 -18 96 -3 3
-7 17 -8 31 -1 24 3 27 44 33 26 3 47 5 49 4 5 -6 14 -166 19 -343 7 -217 11
-292 21 -353 7 -45 20 -54 74 -49 24 2 25 4 21 67 -6 80 -5 329 0 334 2 2 20
6 39 9 33 4 177 34 209 44 10 3 5 13 -20 35 -19 17 -34 38 -34 47 0 17 -52 34
-61 20 -3 -5 -17 -9 -32 -8 -24 0 -25 1 -7 10 15 7 11 7 -15 3 -19 -3 -41 -13
-48 -22 -11 -15 -14 -15 -22 -2 -5 8 -10 29 -11 45 -4 102 -10 151 -24 171
-14 22 -14 23 43 34 31 6 71 16 87 23 37 14 55 11 73 -14 11 -16 22 -18 79
-13 36 2 70 7 74 10 5 3 10 2 10 -3 9 -55 16 -192 24 -442 3 -96 8 -187 10
-203 19 -109 14 -97 41 -99 66 -6 62 -15 61 164 -1 94 -6 165 -12 170 -6 4 -5
10 3 15 7 5 12 13 11 18 -5 26 3 40 24 41 12 1 68 10 125 19 70 13 102 23 102
32 0 7 -5 10 -11 7 -6 -4 -13 2 -16 14 -3 12 -11 21 -18 21 -17 0 -28 30 -12
31 7 0 -1 7 -18 14 -21 9 -34 10 -42 3 -7 -6 -21 -7 -30 -3 -22 10 -65 6 -77
-5 -5 -5 2 -6 15 -3 13 3 22 3 19 0 -8 -9 -60 -17 -61 -9 -2 9 -6 75 -9 142
-2 32 -10 63 -19 73 -13 16 -13 19 -1 27 8 6 27 10 41 10 14 0 48 6 75 13 71
20 303 28 381 15 24 -5 30 -3 26 8 -3 8 -13 14 -23 14 -11 0 -22 5 -25 10 -3
6 -1 10 5 10 12 0 4 40 -10 50 -3 3 -9 13 -13 23 -3 9 -15 17 -25 17 -10 0
-22 3 -26 7 -3 4 -19 8 -34 9 -118 8 -204 10 -242 4z"/>
<path d="M6506 2137 c3 -10 9 -15 12 -12 3 3 0 11 -7 18 -10 9 -11 8 -5 -6z"/>
<path d="M4517 2084 c-4 -4 -191 -14 -277 -15 -65 0 -155 -10 -226 -24 -15 -3
-23 -14 -26 -35 -3 -17 -2 -33 1 -36 3 -3 6 -11 7 -17 0 -7 4 -27 9 -44 9 -37
19 -40 148 -32 20 1 39 0 42 -2 2 -3 7 -23 10 -45 3 -21 8 -50 10 -64 2 -14 7
-65 10 -115 4 -49 8 -101 10 -115 2 -14 7 -65 11 -115 3 -49 10 -100 15 -111
7 -20 69 -73 69 -59 0 3 9 1 20 -5 18 -10 20 -7 21 22 2 42 2 45 -17 253 -6
74 -11 141 -19 270 l-7 101 58 0 c124 2 142 4 148 20 4 9 2 13 -5 8 -15 -9
-97 -9 -106 0 -3 3 2 6 13 7 35 1 99 8 131 14 33 6 52 33 31 47 -10 6 -10 8 0
8 6 0 12 9 12 21 0 11 -4 17 -10 14 -5 -3 -10 1 -10 9 0 10 -6 13 -17 9 -16
-6 -16 -5 -4 10 7 9 10 17 5 18 -5 0 -19 2 -32 3 -12 2 -23 1 -25 0z m-137
-165 c0 -5 -11 -9 -25 -9 -14 0 -25 4 -25 9 0 5 11 9 25 9 14 0 25 -4 25 -9z
m30 1 c0 -5 -4 -10 -10 -10 -5 0 -10 5 -10 10 0 6 5 10 10 10 6 0 10 -4 10
-10z"/>
<path d="M2919 2043 c-1 -10 0 -22 1 -28 4 -22 0 -284 -5 -340 -6 -59 -10 -66
-60 -102 -18 -13 -73 -43 -79 -43 -15 0 -4 41 14 50 21 11 18 32 -3 29 -7 -1
-18 -1 -25 0 -13 1 -38 50 -46 92 -2 13 -8 42 -12 64 -4 22 -8 42 -9 45 -2 26
-42 90 -64 101 -42 21 -65 26 -76 15 -15 -15 -55 -103 -55 -120 0 -8 -4 -18
-10 -21 -5 -3 -10 -14 -10 -24 0 -10 -9 -47 -20 -82 -20 -62 -28 -92 -29 -115
-1 -6 -10 -21 -21 -34 -12 -14 -18 -31 -15 -44 3 -11 -5 -64 -18 -116 -13 -52
-22 -101 -19 -108 7 -20 81 -54 102 -47 20 6 32 37 50 129 18 88 25 99 83 119
101 35 98 37 135 -45 41 -91 52 -105 84 -113 37 -9 44 29 18 95 -25 63 -25 64
0 42 11 -9 30 -19 43 -22 20 -5 22 -12 24 -98 2 -104 11 -125 52 -116 14 4 30
10 34 14 5 4 10 45 12 91 3 107 2 102 20 95 8 -3 43 -8 78 -12 104 -10 248
-51 380 -108 40 -18 44 -13 23 28 -18 36 -80 84 -151 116 -57 26 -249 80 -285
80 -9 0 -25 7 -36 16 -12 10 -14 14 -4 11 20 -6 52 11 45 24 -4 5 -1 9 5 9 6
0 8 5 4 13 -5 8 -2 7 9 -2 10 -8 20 -11 24 -7 3 3 1 6 -5 6 -7 0 -12 5 -12 10
0 6 6 10 13 10 7 0 24 13 38 29 21 24 29 27 39 18 7 -7 10 -7 7 -2 -8 16 7 36
29 39 30 4 81 88 89 146 8 56 -15 118 -58 159 l-24 21 -1 -40 c-1 -22 -13 -62
-26 -88 -25 -48 -148 -187 -157 -177 -3 3 -2 31 3 63 5 31 8 90 6 130 -3 66
-6 75 -34 101 -17 16 -45 36 -62 45 -30 16 -32 15 -33 -1z m-282 -439 c-3 -3
-21 -9 -40 -14 l-34 -7 14 56 c22 89 24 90 45 28 11 -32 18 -61 15 -63z"/>
<path d="M3794 2008 c-3 -5 -3 -19 0 -31 2 -12 8 -76 12 -142 3 -66 8 -123 10
-126 2 -4 6 -55 9 -115 12 -228 16 -274 30 -374 3 -20 58 -25 74 -6 14 17 16
113 6 396 -8 235 -8 206 0 260 8 52 8 46 6 86 -1 20 -7 34 -18 39 -33 13 -124
22 -129 13z"/>
<path d="M2430 1896 c-3 -2 -21 -6 -40 -9 -99 -16 -229 -53 -412 -118 -79 -28
-164 -58 -190 -66 -27 -8 -48 -20 -48 -26 0 -15 82 -68 109 -70 24 -1 21 -22
-16 -137 -13 -41 -27 -96 -30 -122 -6 -50 -7 -51 -77 -29 -67 21 -217 39 -333
40 -82 1 -72 11 64 66 28 12 58 26 65 31 7 6 34 22 59 37 25 14 63 45 83 68
34 36 38 46 33 80 -11 80 -66 118 -174 120 -96 2 -152 -9 -194 -37 -19 -13
-44 -24 -56 -24 -54 0 -77 -61 -84 -218 -3 -81 -25 -95 -106 -67 -22 8 -76 15
-118 17 -42 1 -79 6 -81 10 -3 4 1 8 8 8 22 0 175 80 197 104 46 49 -18 104
-134 113 -139 12 -475 -86 -475 -137 0 -23 36 -36 56 -19 18 15 21 12 27 -29
5 -31 -12 -62 -34 -62 -17 0 -9 -15 14 -25 12 -6 21 -17 19 -25 -14 -62 -14
-112 1 -128 16 -17 14 -18 -26 -21 -23 -1 -51 -4 -62 -6 -11 -2 -44 -4 -72 -4
-62 -1 -68 -14 -16 -32 64 -21 330 -14 450 12 76 16 86 18 122 23 19 3 46 9
60 15 14 5 47 15 74 21 26 7 50 17 53 21 3 5 11 9 18 9 9 0 13 -15 12 -50 -2
-54 6 -62 54 -56 46 7 58 17 69 62 l11 44 68 1 c37 1 88 2 114 3 25 0 45 -1
43 -4 -2 -3 24 -6 56 -7 66 -3 230 -44 299 -75 25 -11 57 -24 71 -28 23 -7 25
-5 22 14 -4 17 1 22 18 23 12 1 45 13 72 28 27 14 53 25 58 25 19 0 110 74
124 101 20 38 20 39 -17 39 -37 0 -85 -14 -206 -59 l-83 -31 5 43 c2 23 6 49
9 57 2 8 7 27 11 42 l8 27 28 -20 c25 -19 31 -20 71 -8 24 7 68 28 96 47 41
26 51 37 44 49 -4 9 -6 24 -4 34 5 17 -1 18 -58 14 -35 -2 -85 -10 -111 -18
l-48 -15 0 33 c0 50 8 62 53 84 40 18 86 34 97 34 3 -1 22 8 42 18 21 10 44
19 52 19 8 0 16 5 18 10 2 6 39 20 83 31 119 30 170 63 146 95 -7 10 -54 18
-61 10z m-822 -230 c13 -13 -90 -95 -174 -138 -138 -71 -134 -71 -128 4 9 122
10 124 84 133 25 4 50 8 55 10 17 5 156 -3 163 -9z m-664 -85 c-28 -28 -208
-100 -220 -89 -7 8 -9 67 -2 69 102 26 242 39 222 20z m41 -225 c11 -2 31 -5
45 -6 23 -1 22 -2 -11 -20 -36 -19 -219 -73 -291 -85 l-37 -7 5 58 c2 32 9 61
13 64 11 6 248 3 276 -4z"/>
</g>
</svg>
