<?xml version="1.0" encoding="utf-8"?>
<!-- Generator: Adobe Illustrator 16.0.4, SVG Export Plug-In . SVG Version: 6.00 Build 0)  -->
<!DOCTYPE svg PUBLIC "-//W3C//DTD SVG 1.1//EN" "http://www.w3.org/Graphics/SVG/1.1/DTD/svg11.dtd">
<svg version="1.1" id="Layer_1" xmlns="http://www.w3.org/2000/svg" xmlns:xlink="http://www.w3.org/1999/xlink" x="0px" y="0px"
	 width="200px" height="200px" viewBox="0 0 200 200" enable-background="new 0 0 200 200" xml:space="preserve">
<g id="XMLID_1420_">
	<g id="XMLID_2476_">
		<path id="XMLID_2224_" fill="#FFFFFF" d="M42.875,49.075c2.445-0.25,4.989-0.449,7.634-0.499c2.644-0.101,5.29,0,7.833,0.298
			c2.545,0.3,4.94,0.75,7.187,1.498c2.245,0.699,4.142,1.747,5.738,3.095c0.499,0.648,0.999,1.397,1.547,2.145
			c0.499,0.748,0.847,1.697,1.047,2.844c0,0.15,0.099,0.35,0.199,0.5c0.101,0.149,0.2,0.349,0.35,0.598l0.15,0.999
			c-0.549,4.74-1.997,8.632-4.442,11.626c-2.395,3.043-5.19,5.688-8.383,7.983c-0.25,0-0.35,0.101-0.299,0.35
			c0.049,0.25,0,0.45-0.15,0.598c-0.25,0.101-0.399,0.101-0.449,0.051c-0.049-0.051-0.199-0.051-0.448-0.051
			c-0.999,0.65-1.947,1.199-2.895,1.748c-0.948,0.549-1.797,1.197-2.595,1.996C55,85.651,54.8,86.2,54.301,86.35
			c-0.498,0.2-1.097,0.35-1.697,0.499c0.449,0.4,1.098,0.749,1.847,0.898c0.748,0.199,1.497,0.399,2.196,0.699
			c0.699,0.25,1.347,0.549,1.896,0.849c0.599,0.298,1.197,0.598,1.896,0.848c1.248,0.698,2.445,1.397,3.543,2.146
			c1.098,0.748,2.246,1.446,3.543,2.145c1.347,1.347,2.695,2.994,4.091,4.89c1.398,1.896,2.396,4.089,2.994,6.438
			c0.5,2.395,0.699,4.591,0.549,6.637c-0.148,2.045-0.349,3.991-0.549,5.888c-0.649,2.345-1.497,4.441-2.595,6.286
			c-1.098,1.848-2.344,3.594-3.742,5.239c-1.397,1.648-2.895,3.144-4.542,4.593c-1.596,1.446-3.194,2.844-4.79,4.291
			c-1.696,1.348-3.443,2.645-5.289,3.843c-1.847,1.196-3.792,2.343-5.888,3.343c-2.246,0.997-4.542,1.795-6.937,2.443
			c-2.396,0.649-4.891,1.248-7.535,1.799c-0.948-0.349-1.896-0.6-2.895-0.697c-0.948-0.104-1.796-0.401-2.544-0.949
			c-0.101-0.25-0.051-0.351,0.199-0.351s0.399-0.049,0.449-0.248c-1.298-0.3-2.445-0.648-3.493-1.101
			c-1.048-0.446-2.046-0.896-3.043-1.297c-0.6,1.149-0.948,2.397-1.049,3.842c-0.1,1.448-0.498,2.646-1.197,3.596
			c-0.299-1.4-0.299-2.795-0.05-4.192c0.25-1.398,0.299-2.796,0.2-4.145c-0.299,0.3-0.449,0.701-0.449,1.15c0,0.447,0,0.948,0,1.547
			c-0.399,1.796-0.798,3.542-1.297,5.238c-0.45,1.697-0.549,0.848-1.248,2.395c-0.25,0.049-0.5,0.251-0.799,0.601
			c-0.35,0.898-0.649,1.797-0.898,2.745s-0.598,1.795-1.047,2.594c-0.201-1.398-0.25-2.894-0.1-4.489
			c0.149-1.597,0-3.046-0.45-4.343c0.349-2.098,0.25-1.747,0.648-3.893c0.399-2.095,0.6-4.441,0.648-6.987
			c-0.199-0.398-0.499-0.747-0.897-0.997c-0.349-0.251-0.6-0.6-0.75-0.998c0.101-0.3,0.35-0.3,0.65,0.1
			c0.299,0.399,0.648,0.55,1.047,0.599c0.648-5.288,1.348-10.278,2.096-14.918c0.748-4.642,1.846-9.284,3.244-13.874
			c0.05-2.596,0.299-4.841,0.749-6.736c0.449-1.848,0.848-3.941,1.197-6.238c-1.497,0.45-2.994,1.098-4.391,1.897
			c-1.448,0.798-2.844,1.596-4.242,2.395c-0.249,0.397-0.699,0.696-1.197,0.947c-0.549,0.25-1.098,0.15-1.647-0.3
			c0.498-1.146,1.248-1.946,2.295-2.495c1.047-0.547,1.697-1.446,2.046-2.644c0.05-0.15-0.05-0.25-0.3-0.299
			c-0.249-0.051-0.349,0-0.199,0.2c0.1-0.5,0.399-0.898,0.848-1.248c0.5-0.35,0.898-0.749,1.247-1.248
			c-0.499-0.6-0.748-1.098-0.699-1.497c0-0.399,0.2-0.749,0.45-1.098c0.3-0.3,0.648-0.6,1.047-0.849c0.4-0.25,0.8-0.45,1.199-0.699
			c0.849-0.549,1.846-1.148,3.093-1.797c1.197-0.648,2.146-1.248,2.844-1.696c0.299-0.899,0.5-1.747,0.599-2.546
			c0.15-0.798,0.449-1.596,0.897-2.295c0.699-2.445,1.199-5.04,1.397-7.784c0.201-2.795,0.549-5.489,0.948-8.184
			c0.2-0.399,0.399-0.798,0.549-1.197c0.2-0.399,0.35-0.848,0.548-1.347c-0.897,0.049-1.596,0.199-2.095,0.499
			c-0.5,0.249-0.999,0.598-1.499,0.998c-2.295,0.748-4.39,1.795-6.336,3.144c-0.399,0.148-0.699,0.349-0.898,0.648
			c-0.199,0.299-0.499,0.399-0.948,0.399c-0.15-0.399,0-0.699,0.35-0.899c0.399-0.199,0.699-0.399,0.897-0.648
			c-1.248,0.05-2.395,0.299-3.492,0.749c-1.098,0.448-2.246,0.799-3.444,0.998c2.844-2.595,5.639-5.239,8.483-7.784
			c2.844-2.595,6.087-4.84,9.731-6.786c-0.15-2.145-0.15-3.992-0.051-5.588c0.1-1.597,0.35-3.144,0.798-4.691
			c0.849-0.45,1.896-0.699,3.144-0.748c1.248-0.051,2.495,0.049,3.743,0.349c1.248,0.299,2.295,0.798,3.244,1.497
			C42.125,46.979,42.674,47.927,42.875,49.075z M28.603,144.683c2.396-0.4,4.691-1.098,6.786-1.996
			c2.146-0.897,4.042-1.896,5.79-2.894c3.493-2.046,6.736-4.49,9.781-7.334c3.043-2.845,5.688-5.938,7.933-9.234
			c1.098-1.597,2.097-3.441,3.044-5.536c0.948-2.098,1.398-4.392,1.348-6.837c-0.1-3.594-1.098-6.588-2.893-8.934
			c-1.199-1.497-2.895-2.793-5.09-3.891s-4.541-1.896-7.085-2.445c-2.546-0.549-5.141-0.899-7.784-0.948
			c-2.646-0.05-5.09,0.148-7.336,0.648c-0.948,3.093-1.696,6.336-2.195,9.831c-0.549,3.443-1.248,6.686-2.245,9.679
			c-0.798,5.141-1.847,9.931-3.044,14.423c-1.197,4.492-2.295,9.132-3.344,13.923c1.049,0.496,2.096,0.796,3.044,0.896
			C26.308,144.135,27.405,144.334,28.603,144.683z M48.613,76.819c1.796-0.5,3.293-1.298,4.49-2.346
			c1.147-1.047,2.346-2.096,3.593-3.194c0.997-0.948,1.996-1.945,2.944-2.994c0.948-1.047,1.646-2.245,2.145-3.642
			c0-0.399,0-0.849-0.15-1.348c-0.099-0.5-0.15-0.948-0.15-1.347c-0.697-1.397-1.746-2.396-3.093-2.895
			c-1.348-0.549-2.944-0.749-4.84-0.648c-2.146,0.1-4.292,0.349-6.538,0.798c-2.245,0.448-4.042,0.948-5.339,1.546
			c-0.798,1.448-1.396,3.095-1.795,4.891c-0.45,1.846-0.8,3.692-1.098,5.538c-0.3,1.896-0.599,3.792-0.899,5.739
			s-0.699,3.792-1.197,5.489c1.996-0.948,4.041-1.847,6.087-2.694C44.87,78.915,46.816,77.917,48.613,76.819z"/>
	</g>
	<g id="XMLID_2473_">
		<g id="XMLID_2475_">
			
				<linearGradient id="XMLID_2_" gradientUnits="userSpaceOnUse" x1="1526.0928" y1="-1350.2324" x2="1597.0135" y2="-1350.2324" gradientTransform="matrix(0.1984 0 0 -0.1984 -205.5993 -216.433)">
				<stop  offset="0" style="stop-color:#B9792A"/>
				<stop  offset="0.14" style="stop-color:#C9913A"/>
				<stop  offset="0.3802" style="stop-color:#E6BC5F"/>
				<stop  offset="0.5" style="stop-color:#F5D070"/>
				<stop  offset="0.6198" style="stop-color:#E6BC5F"/>
				<stop  offset="0.86" style="stop-color:#C9913A"/>
				<stop  offset="1" style="stop-color:#B9792A"/>
			</linearGradient>
			<path id="XMLID_2222_" fill="url(#XMLID_2_)" d="M110.638,52.068c-0.299,0.3-0.599,0.549-0.947,0.849
				c-0.3,0.299-0.697,0.399-1.149,0.399c0.101,0.249,0,0.449-0.248,0.548c-0.249,0.1-0.449,0.349-0.548,0.649
				c-0.452-0.549-0.551-1.047-0.4-1.547c0.149-0.499,0.101-0.998-0.299-1.498c0.399-0.548,0.497-1.047,0.148-1.545
				c-0.299-0.5-0.299-0.999,0.05-1.598c-0.349-0.948-0.498-1.896-0.349-2.794c0.101-0.899-0.05-1.747-0.398-2.645
				c0-0.05,0-0.1,0-0.1c0.05-0.1,0.099-0.15,0.2-0.15c0.1,0,0.1-0.05,0.049-0.149c-0.249-0.1-0.298-0.25-0.15-0.45
				c0.15-0.199,0-0.3-0.447-0.349c0-0.05,0.05-0.099,0.05-0.149c0.299-0.399,0.349-0.798,0.098-1.098
				c-0.049-0.1-0.147-0.2-0.199-0.3c0-0.049,0.052-0.099,0.052-0.149c-0.052,0-0.103,0-0.152,0
				c-0.146-0.249-0.299-0.499-0.397-0.748c-0.15-0.05-0.349-0.099-0.501-0.099c-0.196,0-0.397-0.051-0.698-0.051
				c0.102,0.25,0.102,0.399,0.102,0.45c0,0.049-0.15,0.1-0.401,0.249c-0.049,0.3,0,0.649,0.102,1.147
				c-0.052,0.05-0.052,0.101-0.102,0.101c-0.198,0.15-0.247,0.399-0.198,0.648c-0.049,0-0.101,0.049-0.199,0.049
				c0,0.2-0.049,0.401-0.049,0.6c-0.101,0.05-0.101,0.099-0.051,0.249c0,0.05,0,0.05,0.051,0.101c0,0.1,0,0.149-0.051,0.25
				c-0.05,0.049-0.102,0.1-0.2,0.1c-0.049,0.099-0.049,0.15,0.05,0.15c0.049,0,0.101,0.05,0.101,0.099c0,0.15-0.052,0.3-0.052,0.45
				c-0.397,0.699-0.6,1.497-0.6,2.295c0,0.05,0,0.099,0,0.2c-0.195,0.648-0.348,1.297-0.446,1.996c-0.102,0.2-0.15,0.35-0.25,0.549
				c0.049,0.099,0.1,0.249,0.1,0.349c-0.051,0.35-0.1,0.65-0.149,0.999c-0.049,0.051-0.098,0.15-0.15,0.2
				c-0.349,0.399-0.399,0.948-0.051,1.546c-0.397,0.399-0.548,0.899-0.446,1.448c0.098,0.548-0.102,1.047-0.601,1.447
				c-0.099-0.349-0.248-0.598-0.499-0.749c-0.2-0.15-0.299-0.35-0.149-0.599c-0.45-0.099-0.849-0.299-1.098-0.648
				c-0.25-0.351-0.549-0.649-0.798-0.999c-0.449,0.299-0.699,0.648-0.798,1.047c-0.051,0.399-0.101,0.849-0.051,1.349
				c0.051,0.498,0.051,0.948,0.1,1.497c0,0.499-0.1,0.948-0.399,1.248c0.3,0.798,0.399,1.696,0.2,2.744
				c-0.15,1.048-0.2,2.096-0.05,3.094c0.201,0.1,0.399,0.3,0.599,0.499c0.199,0.2,0.399,0.399,0.649,0.599
				c0.498-0.05,0.998-0.101,1.446-0.05c0.45,0,0.949,0,1.546-0.1c0.101,0.049,0.3,0.049,0.6,0.049
				c0.501,0.051,1.049,0.051,1.546,0.051c1.548,0,3.443-0.051,3.694,0c0.447,0.099,0.398-0.15,0.899,0
				c0.247-0.15,0.997,0.05,1.196-0.1c0.198-0.15,0.449-0.25,0.648-0.35c0.247-0.997,0.351-1.995,0.299-3.093
				c0-1.047,0.149-1.946,0.549-2.646c-0.2-0.398-0.301-0.798-0.2-1.347c0.052-0.499,0.15-0.998,0.251-1.447s0.15-0.898,0.15-1.298
				C111.238,52.816,111.037,52.417,110.638,52.068z"/>
		</g>
	</g>
	<g id="XMLID_2464_">
		<path id="XMLID_2209_" fill="#FFFFFF" d="M173.164,48.426h-0.15c0,0.1,0.049,0.15,0.102,0.15
			C173.115,48.576,173.164,48.525,173.164,48.426c0.3-0.149,0.446-0.1,0.397,0.2c-0.049,0.299,0,0.449,0.201,0.449
			c0.249,0.449,0.496,0.849,0.796,1.248c0.299,0.399,0.649,0.798,1.101,1.248c1.095,1.795,2.095,3.892,2.942,6.237
			c0.85,2.345,1.498,4.79,1.944,7.385c0.501,2.994,0.752,5.49,0.752,7.436c0,1.995,0.098,4.241,0.248,6.686
			c0.101,0.598,0.3,0.848,0.648,0.799c-0.248,0.099-0.349,0.299-0.349,0.699c0,0.398,0.199,0.598,0.548,0.598
			c-0.3,0.398-0.349,1.097-0.147,2.096c0.198,0.998,0.349,1.797,0.547,2.496c-0.247,0-0.349,0.199-0.247,0.549
			c0.099,0.399,0.147,0.748,0.099,1.098c0.049,0.448-0.05,0.848-0.251,1.198c-0.248,0.398-0.147,0.748,0.201,1.097
			c-0.25,0-0.349,0.1-0.349,0.3c0.05,0.199-0.052,0.398-0.152,0.548c-0.147,0.15-0.197,0.399-0.197,0.699
			c0,0.299-0.051,0.548-0.201,0.698c0.05,1.448,0,2.845-0.149,4.192c-0.15,1.347,0.199,2.644,1.049,3.842
			c0,1.097-0.15,2.047-0.349,2.793c-0.25,0.75-0.501,1.45-0.851,1.997c-1.446,0.698-2.593,1.746-3.443,2.994
			c-0.898,1.297-1.795,2.496-2.744,3.694c-1.846,3.74-3.94,7.284-6.337,10.574c-2.396,3.297-4.991,6.141-7.885,8.637
			c-0.798,0.397-1.497,0.847-2.095,1.345c-0.599,0.501-1.196,1.049-1.795,1.597c-1.749,0.449-3.245,1.198-4.544,2.146
			c-1.297,0.998-2.643,1.798-3.99,2.446c-0.698,0.049-1.298,0.147-1.896,0.249c-0.598,0.1-1.196,0.248-1.845,0.399
			c-2.049,0.049-3.844-0.251-5.34-0.801c-1.547-0.547-2.896-1.247-4.143-2.144c-2.844-2.694-5.091-6.138-6.587-10.229
			c-1.546-4.092-2.597-8.434-3.245-12.924c-0.599-4.492-0.795-8.983-0.599-13.474c0.201-4.491,0.599-8.434,1.198-11.926
			c0.55-3.094,1.199-6.237,1.896-9.332c0.699-3.093,1.596-6.087,2.696-8.882c1.096-2.794,2.343-5.439,3.792-7.834
			c1.447-2.396,3.144-4.541,5.089-6.337c0.6-0.6,1.199-1.098,1.798-1.597c0.6-0.5,1.095-1.049,1.395-1.748
			c0.152-0.148,0.201-0.399,0.152-0.699c-0.051-0.298,0-0.598,0.099-0.948c0.05-0.149,0.199-0.399,0.398-0.598
			c0.201-0.25,0.399-0.5,0.55-0.75c1.346-2.344,3.492-3.892,6.337-4.64c1.348-0.049,2.795-0.25,4.342-0.598
			c1.548-0.35,3.045-0.599,4.59-0.849c1.547-0.2,3.044-0.2,4.542,0c1.497,0.199,2.844,0.798,4.091,1.746
			c1.248,0.201,2.245,0.699,3.046,1.498C171.665,46.729,172.414,47.577,173.164,48.426z M160.54,115.193
			c3.691-4.941,6.337-10.78,8.03-17.517c0.152-0.15,0.301-0.349,0.401-0.598c0.149-0.25,0.248-0.449,0.4-0.599
			c0.049-0.15,0.098-0.349,0.147-0.549c0.051-0.199,0-0.45-0.099-0.798c0.449-0.3,0.697-0.699,0.697-1.197
			c0.101-0.999,0.152-2.096,0.201-3.443c0-1.298,0.05-2.595,0.147-3.792c0.102,0.099,0.251,0.149,0.452,0.199
			c0.196,0.05,0.248-0.05,0.147-0.299c0.201-0.399,0.25-0.799,0.152-1.147c-0.104-0.35-0.251-0.799-0.501-1.298
			c0.349-0.299,0.501-0.699,0.397-1.197c-0.099-0.499-0.147-1.048-0.049-1.597c0.049-0.15,0.101-0.35,0.152-0.548
			c0.049-0.201,0.098-0.45,0.146-0.65c0.102-0.549,0.05-1.098-0.049-1.647c-0.098-0.549-0.201-1.098-0.201-1.646
			c0-0.649,0-1.248,0-1.796s-0.196-0.999-0.598-1.448c-0.148-3.193-0.748-6.138-1.846-8.832c-1.099-2.695-2.743-4.691-4.89-6.089
			c-0.948-0.199-1.896-0.349-2.845-0.448c-0.947-0.101-1.996-0.15-3.046-0.101c-2.043,0.699-3.938,1.448-5.786,2.346
			c-1.797,0.898-3.144,2.246-4.042,4.142c-0.3,1.796-0.398,3.642-0.251,5.639c0.152,1.996,0.452,3.942,0.85,5.988
			c0.397,1.996,0.898,3.992,1.396,5.938c0.55,1.946,1.051,3.743,1.547,5.39c-0.697-0.349-1.247-0.798-1.694-1.397
			c-0.4-0.598-0.801-1.197-1.199-1.896c-0.397-0.648-0.798-1.297-1.198-1.896c-0.397-0.6-0.947-1.098-1.597-1.497
			c-0.247,0.1-0.446,0.15-0.599,0.25c-0.147,0.099-0.349,0.05-0.496-0.15c-0.501-0.499-0.898-1.098-1.198-1.746
			c-0.3-0.649-0.55-1.348-0.802-2.096c-0.247-0.748-0.446-1.497-0.647-2.295c-0.196-0.798-0.447-1.497-0.697-2.146
			c-0.648,0.049-1.147,0.448-1.447,1.197c-0.299,0.75-0.647,1.348-1.098,1.797c-1.397,5.04-2.645,10.43-3.743,16.268
			c-1.098,5.837-1.247,12.177-0.499,19.061c0.199,2.396,0.598,4.541,1.196,6.538c0.6,1.996,1.401,3.842,2.296,5.588
			c0,0.399,0.053,0.748,0.15,1.048c0.099,0.3,0.202,0.649,0.3,1.049c0.898,0.697,1.799,1.096,2.594,1.297
			c0.801,0.199,1.848,0.349,3.095,0.449c0.397-0.65,0.85-1,1.349-1.049C151.904,123.677,156.846,120.132,160.54,115.193z
			 M143.874,125.97c0.049-0.099,0.196-0.099,0.446,0c0.201,0.102,0.3,0.201,0.251,0.398c-0.15,0.103-0.251,0.052-0.349-0.148
			C144.173,126.071,144.07,125.97,143.874,125.97z M167.775,47.977c0.098-0.099,0.146-0.099,0.196,0.049
			C167.775,48.126,167.675,48.076,167.775,47.977z M167.972,48.026c0.103,0,0.152,0.05,0.152,0.149
			C168.124,48.276,168.074,48.226,167.972,48.026z M168.771,48.426c0-0.1,0.05-0.1,0.251-0.1
			C169.022,48.376,168.972,48.426,168.771,48.426z M180.898,103.814l0.049,0.352h-0.249l-0.049-0.352H180.898z M180.698,93.885
			c0.05,0.349,0,0.349-0.1,0C180.599,93.536,180.649,93.536,180.698,93.885z"/>
	</g>
	<g id="XMLID_2460_">
		<g id="XMLID_2463_">
			<path id="XMLID_2207_" fill="#FFFFFF" d="M133.392,138.795l-0.249-0.149l-0.199-0.199c-2.893-2.697-5.14-6.088-6.837-9.981
				c-1.248,0.05-2.496,0.2-3.691,0.45c-0.7,0.198-1.348,0.399-1.947,0.498s-1.297,0.201-2.096,0.35
				c-2.046,0.149-4.191,0.201-6.337,0.201s-4.342-0.052-6.537-0.052c-1.049-0.149-2.096-0.249-3.193-0.198
				c-1.098,0-2.246,0.049-3.443,0.098c-1.197,0.051-2.345,0.051-3.593,0.051c-1.197,0-2.395-0.148-3.592-0.299
				c-2.146,0.4-4.391,0.599-6.637,0.7c-2.295,0.049-4.341,0.596-6.188,1.545c-2.994,0.448-5.988,0.949-8.932,1.497
				c-1.197,1.298-2.445,2.596-3.792,3.741l-4.94,4.391c-1.747,1.401-3.593,2.697-5.489,3.944c-1.946,1.298-3.992,2.444-6.188,3.492
				l-0.1,0.051c-2.396,1.048-4.841,1.944-7.336,2.593c-0.649,0.201-1.348,0.352-2.046,0.501c0,0.05,0.051,0.099,0.051,0.149
				c6.687,0.101,16.318-0.199,17.165-0.449c1.198-0.349,3.144-0.498,4.342-1.149c0.997-0.049,2.346-0.446,3.243-0.795
				c0.897-0.3,1.796,0,2.745-0.349c0.948-0.352,1.846-0.651,2.793-0.851c0.949-0.202,1.946-0.251,2.996-0.05
				c0.548-0.399,1.197-0.599,1.995-0.647c0.798-0.052,1.397-0.351,1.846-0.948c0.2,0.349,0.4,0.447,0.65,0.3
				c0.199-0.152,0.549-0.201,0.897-0.052c1.298-0.6,2.745-0.999,4.242-1.195c1.497-0.202,3.093-0.401,4.69-0.502
				c1.597-0.099,3.193-0.251,4.74-0.398c1.547-0.148,3.044-0.399,4.491-0.8c2.046,0,3.992-0.147,5.839-0.447
				c1.846-0.299,3.693-0.349,5.639-0.201c0.547-0.098,1.096-0.199,1.646-0.3c0.55-0.098,1.098-0.049,1.646,0.101
				c0.351-0.349,0.752-0.547,1.247-0.697c0.502-0.101,1-0.199,1.598-0.3c0.55-0.1,1.1-0.15,1.599-0.248
				c0.498-0.104,0.997-0.3,1.446-0.6c1.046,0.05,1.997,0.05,2.894,0.05c0.898,0,1.847-0.101,2.843-0.349
				c2.049,0.199,3.995,0.049,5.792-0.501c1.744-0.499,3.492-0.948,5.288-1.346C134.042,139.294,133.691,139.046,133.392,138.795z"/>
		</g>
		<g id="XMLID_2462_">
			<path id="XMLID_2205_" fill="#FFFFFF" d="M186.186,132.955c0,0.052-0.049,0.101-0.098,0.052c0-0.052,0-0.052,0-0.052
				c-0.15,0-0.3,0-0.45,0c0-0.147,0.052-0.248,0.199-0.299c0.101-0.1,0.049-0.148-0.199-0.197c-0.799,0-1.596,0-2.443-0.101
				c-0.85-0.052-1.699-0.102-2.648-0.102c0.053-0.198,0-0.198-0.146-0.049c-0.101,0.099-0.101,0.099-0.05,0.099
				c-0.201,0.052-0.4,0.101-0.599,0.052c-0.3,0-0.501,0-0.648,0.049c-0.551-0.4-1.248-0.599-2.195-0.499
				c-0.899,0.099-1.75-0.149-2.545-0.647c0.697-0.3,1.444-0.45,2.294-0.501c0.85-0.05,1.547-0.3,2.097-0.796
				c-0.151,0-0.3,0-0.401,0.147c-0.1,0.1-0.249,0-0.35-0.349c0.35-0.148,0.501-0.251,0.501-0.35s0.049-0.3,0.147-0.6
				c-0.548,0.05-1.096,0.05-1.597,0c-0.548-0.049-0.996-0.049-1.345,0.05c-0.15-0.147-0.15-0.248-0.05-0.349
				c0.099-0.099,0.099-0.198-0.05-0.349c-0.401,0.049-0.801,0.049-1.247-0.099c-0.452-0.152-0.801-0.051-1.051,0.249
				c-1.845-0.2-3.692-0.249-5.438-0.15c-1.746,2.098-3.642,3.993-5.639,5.737l-0.251,0.201l-0.3,0.149
				c-0.596,0.297-1.144,0.649-1.545,0.998c-0.547,0.448-1.049,0.898-1.599,1.397l-0.496,0.448l-0.7,0.199
				c-0.547,0.149-0.999,0.3-1.495,0.551c1.945-0.101,3.842-0.251,5.737-0.349c2.098-0.352,4.343-0.648,6.685-0.948
				c2.349-0.301,4.743-0.649,7.139-0.948c2.395-0.3,4.788-0.65,7.186-0.948c2.395-0.299,4.69-0.651,6.887-0.947
				c-0.85-0.251-1.548-0.452-2.098-0.55C187.035,133.007,186.586,132.955,186.186,132.955z"/>
		</g>
		<g id="XMLID_2461_">
			<path id="XMLID_2203_" fill="#FFFFFF" d="M186.186,132.857c-0.049,0-0.098,0.049-0.147,0.098c0.05,0,0.05,0,0.099,0
				C186.186,132.906,186.186,132.906,186.186,132.857z"/>
		</g>
	</g>
	<g id="XMLID_1561_">
		<path id="XMLID_2200_" fill="#FFFFFF" d="M109.091,68.685c-0.599-0.499-1.346-0.847-2.245-1.048
			c-0.898-0.199-1.846-0.299-2.795-0.299c-0.996,0-1.993,0.051-3.043,0.15c-1.048,0.1-1.996,0.249-2.794,0.35
			c-0.749,1.147-1.197,2.544-1.298,4.092c-0.15,1.597-0.199,3.193-0.199,4.89c0,1.646-0.051,3.342-0.051,4.989
			c0,1.647-0.25,3.194-0.648,4.641c0.149,1.497,0.049,2.794-0.3,3.893c-0.398,1.098-0.349,2.346,0.051,3.742
			c-0.051,0.35-0.25,0.05-0.5,1.997h-0.049c-0.101,2.196-0.549,3.792-0.649,5.939c-0.399,1.645,0.549-3.794,0.45-2.048l0,0
			c-0.049,0.649-0.15,1.298-0.199,1.846c-0.15,1.399-0.399,3.195-0.549,4.492l0,0c-0.05,0.248-0.05,0.498-0.101,0.749
			c-0.049,0.3-0.049,0.551-0.049,0.698c-0.05,0.349-0.05,0.697-0.101,1.049c-0.099,0.947-0.148,1.896-0.199,2.944
			c0,0.648,0,1.345,0.051,2.043c0.049,0.7,0,1.4-0.201,2.048c0.201,1.097,0.25,2.147,0.1,3.044c-0.15,0.947-0.1,2.046,0.149,3.293
			c0.25,0.15,0.45,0.397,0.5,0.799c0.049,0.4,0.099,0.847,0.099,1.397c0,0.499,0,1.046,0,1.547c0,0.499,0.049,0.997,0.199,1.498
			c0.35-0.451,0.549-0.999,0.5-1.647c-0.05-0.7,0.1-1.248,0.349-1.795c0.051,0.495,0.201,0.696,0.45,0.696
			c0.049-1.148,0.199-2.146,0.449-3.094c0.25-0.948,0.399-1.946,0.448-2.994c0.399-0.749,0.65-1.697,0.699-2.744
			c0.05-1.1,0.35-1.996,0.948-2.645c0.299,1.196,0.399,2.395,0.299,3.691c-0.099,1.297,0.201,2.396,0.898,3.296
			c-0.05,0.398-0.05,0.747,0,1.047c0.05,0.299,0.05,0.599,0,1.045c0.5-0.947,0.848-1.895,1.098-2.844
			c0.25-0.997,0.549-1.993,0.849-2.942c0.4-0.25,0.798-0.448,1.195-0.501c0.403-0.098,0.701-0.3,0.899-0.746
			c0.201-0.349,0.299-0.749,0.299-1.247c0-0.499-0.049-0.998-0.049-1.499c0-0.498,0-0.997,0-1.446
			c0.049-0.449,0.15-0.848,0.349-1.196c0.15-1.547,0.301-3.095,0.502-4.69l0,0c0.349-4.094-0.301-2.596,0.147-5.49
			c0.201-1.298,0.201-3.144,0.349-4.442c0.3-2.345,0.599-2.495,0.801-3.093c0.647-2.396,1.046-4.991,1.198-7.785
			c0.146-0.449,0.297-0.899,0.447-1.347c0.149-0.449,0.3-0.899,0.449-1.349c-0.198-0.448-0.249-0.997-0.101-1.795
			c0.152-0.749,0.399-1.298,0.801-1.646c-0.648-1.848-0.7-3.444-0.152-4.841C109.24,71.878,109.391,70.382,109.091,68.685z"/>
	</g>
	<g id="XMLID_1491_">
		<g id="XMLID_1560_">
			<path id="XMLID_2198_" fill="#FFFFFF" d="M81.497,117.637c0-0.049-0.05-0.049-0.05-0.049
				C81.446,117.637,81.547,117.637,81.497,117.637z"/>
		</g>
		<g id="XMLID_1559_">
			<path id="XMLID_2196_" fill="#FFFFFF" d="M81.297,118.536v0.149V118.536z"/>
		</g>
		<g id="XMLID_1558_">
			<path id="XMLID_2194_" fill="#FFFFFF" d="M81.197,118.936L81.197,118.936v-0.103c-0.049,0.201-0.1,0.451-0.15,0.55
				C81.148,119.334,81.148,119.083,81.197,118.936z"/>
		</g>
		<g id="XMLID_1557_">
			<path id="XMLID_2192_" fill="#FFFFFF" d="M80.798,119.683C80.749,119.683,80.749,119.683,80.798,119.683
				c0,0.05-0.049,0.05-0.049,0.101C80.749,119.732,80.698,119.884,80.798,119.683z"/>
		</g>
		<g id="XMLID_1556_">
			<path id="XMLID_2190_" fill="#FFFFFF" d="M80.749,119.683C80.798,119.584,80.698,119.732,80.749,119.683L80.749,119.683z"/>
		</g>
		<g id="XMLID_1555_">
			<path id="XMLID_2188_" fill="#FFFFFF" d="M80.648,120.081v-0.099C80.648,119.982,80.599,120.081,80.648,120.081
				C80.549,120.184,80.599,120.132,80.648,120.081z"/>
		</g>
		<g id="XMLID_1554_">
			<path id="XMLID_2186_" fill="#FFFFFF" d="M80.648,120.132c0,0,0,0,0,0.052V120.132z"/>
		</g>
		<g id="XMLID_1553_">
			<path id="XMLID_2184_" fill="#FFFFFF" d="M80.698,120.081c0,0,0,0,0-0.049v0.151C80.698,120.132,80.698,120.132,80.698,120.081z"
				/>
		</g>
		<g id="XMLID_1552_">
			<path id="XMLID_2182_" fill="#FFFFFF" d="M80.798,119.933c0.05-0.2,0-0.2-0.049,0C80.749,119.884,80.798,119.832,80.798,119.933z
				"/>
		</g>
		<g id="XMLID_1551_">
			<path id="XMLID_2180_" fill="#FFFFFF" d="M81.148,119.284c0,0.05-0.101,0.147-0.051,0.147l0.051-0.098V119.284z"/>
		</g>
		<g id="XMLID_1550_">
			<path id="XMLID_2178_" fill="#FFFFFF" d="M80.449,120.78v-0.101c-0.051,0.052-0.051,0.101-0.101,0.101
				C80.398,120.832,80.398,120.78,80.449,120.78z"/>
		</g>
		<g id="XMLID_1549_">
			<path id="XMLID_2176_" fill="#FFFFFF" d="M80.449,120.78v0.15C80.449,120.78,80.449,120.78,80.449,120.78z"/>
		</g>
		<g id="XMLID_1548_">
			<polygon id="XMLID_2174_" fill="#FFFFFF" points="80.749,120.282 80.749,120.032 80.698,120.331 			"/>
		</g>
		<g id="XMLID_1547_">
			<path id="XMLID_2172_" fill="#FFFFFF" d="M80.249,121.028L80.249,121.028L80.249,121.028z"/>
		</g>
		<g id="XMLID_1546_">
			<path id="XMLID_2170_" fill="#FFFFFF" d="M80.249,121.028C80.249,121.028,80.249,120.979,80.249,121.028
				C80.249,120.979,80.249,121.028,80.249,121.028z"/>
		</g>
		<g id="XMLID_1545_">
			<path id="XMLID_2168_" fill="#FFFFFF" d="M80.249,121.028L80.249,121.028L80.249,121.028L80.249,121.028z"/>
		</g>
		<g id="XMLID_1544_">
			<path id="XMLID_2166_" fill="#FFFFFF" d="M80.249,120.979L80.249,120.979L80.249,120.979z"/>
		</g>
		<g id="XMLID_1543_">
			<path id="XMLID_2164_" fill="#FFFFFF" d="M80.05,121.08c0.049-0.052-0.101-0.052-0.05-0.052c-0.1,0.052-0.149,0.104-0.199,0.104
				C79.85,121.132,79.949,121.132,80.05,121.08z"/>
		</g>
		<g id="XMLID_1542_">
			<path id="XMLID_2162_" fill="#FFFFFF" d="M80.348,121.08C80.348,121.08,80.348,121.028,80.348,121.08
				C80.299,121.08,80.348,121.08,80.348,121.08L80.348,121.08z"/>
		</g>
		<g id="XMLID_1541_">
			<polygon id="XMLID_2160_" fill="#FFFFFF" points="80.348,121.08 80.348,121.08 80.348,121.08 80.348,121.08 			"/>
		</g>
		<g id="XMLID_1540_">
			<path id="XMLID_2158_" fill="#FFFFFF" d="M80.648,120.68c0-0.049-0.049,0-0.049-0.098
				C80.599,120.68,80.549,120.832,80.648,120.68z"/>
		</g>
		<g id="XMLID_1539_">
			<path id="XMLID_2156_" fill="#FFFFFF" d="M80.498,120.931C80.449,120.931,80.449,120.931,80.498,120.931
				c-0.049-0.049-0.049,0.149-0.049,0.098C80.398,121.08,80.498,120.931,80.498,120.931z"/>
		</g>
		<g id="XMLID_1538_">
			<polygon id="XMLID_2154_" fill="#FFFFFF" points="80.449,121.08 80.449,121.028 80.398,121.08 			"/>
		</g>
		<g id="XMLID_1537_">
			<path id="XMLID_2152_" fill="#FFFFFF" d="M79.949,121.181c-0.049,0.05-0.099,0.05-0.199,0.099c0.1,0,0.149-0.049,0.249-0.049
				C80,121.23,80,121.181,79.949,121.181z"/>
		</g>
		<g id="XMLID_1536_">
			<path id="XMLID_2150_" fill="#FFFFFF" d="M80.249,121.132L80.249,121.132L80.249,121.132z"/>
		</g>
		<g id="XMLID_1535_">
			<polygon id="XMLID_2148_" fill="#FFFFFF" points="79.001,121.48 79.051,121.48 79.051,121.48 			"/>
		</g>
		<g id="XMLID_1534_">
			<path id="XMLID_2146_" fill="#FFFFFF" d="M80,121.23c0.05,0,0.099-0.05,0.099-0.05S80.05,121.23,80,121.23L80,121.23z"/>
		</g>
		<g id="XMLID_1533_">
			<path id="XMLID_2144_" fill="#FFFFFF" d="M79.501,121.328c0.049,0,0.049,0,0.1,0C79.55,121.279,79.501,121.279,79.501,121.328z"
				/>
		</g>
		<g id="XMLID_1532_">
			<path id="XMLID_2142_" fill="#FFFFFF" d="M80.2,121.132L80.2,121.132L80.2,121.132z"/>
		</g>
		<g id="XMLID_1531_">
			<path id="XMLID_2140_" fill="#FFFFFF" d="M80.2,121.132c-0.05,0-0.05,0.049-0.05,0.049L80.2,121.132L80.2,121.132z"/>
		</g>
		<g id="XMLID_1530_">
			<path id="XMLID_2138_" fill="#FFFFFF" d="M79.301,121.43h0.05c-0.05,0-0.099,0-0.2,0c-0.1,0.051-0.1,0.051-0.1,0.1L79.301,121.43
				L79.301,121.43z"/>
		</g>
		<g id="XMLID_1529_">
			<path id="XMLID_2136_" fill="#FFFFFF" d="M79.55,121.48c0.15-0.051,0.101-0.051,0.201-0.102c-0.25,0.102,0.05-0.051-0.15,0
				c0.05,0,0.1-0.051,0.15-0.051c-0.05,0-0.1,0-0.15,0l0,0l0,0l0,0l0,0l0,0l0,0c-0.1,0,0,0,0,0l0,0l0,0l-0.25,0.102
				c0.049,0,0.15-0.051,0.25-0.051C79.55,121.379,79.451,121.43,79.55,121.48z"/>
		</g>
		<g id="XMLID_1528_">
			<path id="XMLID_2134_" fill="#FFFFFF" d="M80.698,120.882L80.698,120.882L80.698,120.882z"/>
		</g>
		<g id="XMLID_1527_">
			<path id="XMLID_2132_" fill="#FFFFFF" d="M80.648,120.979c0,0,0-0.049,0-0.098c0.05-0.05,0,0,0.05,0c0-0.05,0-0.15-0.05-0.05l0,0
				c-0.049,0.099-0.15,0.196-0.15,0.196C80.549,121.028,80.549,121.028,80.648,120.979z"/>
		</g>
		<g id="XMLID_1526_">
			<path id="XMLID_2130_" fill="#FFFFFF" d="M80.249,121.279l-0.199,0.1h0.1l0,0C80.249,121.328,80.249,121.279,80.249,121.279z"/>
		</g>
		<g id="XMLID_1525_">
			<polygon id="XMLID_2128_" fill="#FFFFFF" points="79.001,121.43 78.902,121.529 79.001,121.48 			"/>
		</g>
		<g id="XMLID_1524_">
			<polygon id="XMLID_2126_" fill="#FFFFFF" points="78.703,121.529 78.652,121.579 78.703,121.579 			"/>
		</g>
		<g id="XMLID_1523_">
			<path id="XMLID_2124_" fill="#FFFFFF" d="M79.55,126.319L79.55,126.319c0.051-0.1,0.051-0.148,0.051-0.199
				C79.601,126.22,79.501,126.319,79.55,126.319z"/>
		</g>
		<g id="XMLID_1522_">
			<path id="XMLID_2122_" fill="#FFFFFF" d="M77.555,123.225c0.05,0.051,0.099,0.103,0.15,0.152
				C77.654,123.275,77.605,123.176,77.555,123.225z"/>
		</g>
		<g id="XMLID_1521_">
			<path id="XMLID_2120_" fill="#FFFFFF" d="M85.837,127.566c0.05,0,0.101,0,0.101,0C85.837,127.566,85.788,127.566,85.837,127.566z
				"/>
		</g>
		<g id="XMLID_1520_">
			<path id="XMLID_2118_" fill="#FFFFFF" d="M77.903,123.524C77.903,123.476,77.854,123.476,77.903,123.524
				c-0.1-0.049-0.15-0.099-0.199-0.147C77.753,123.426,77.804,123.476,77.903,123.524z"/>
		</g>
		<g id="XMLID_1519_">
			<path id="XMLID_2116_" fill="#FFFFFF" d="M82.495,118.337c0,0-0.05-0.051-0.05-0.102
				C82.445,118.235,82.445,118.286,82.495,118.337z"/>
		</g>
		<g id="XMLID_1518_">
			<path id="XMLID_2114_" fill="#FFFFFF" d="M77.504,121.878C77.605,121.829,77.555,121.878,77.504,121.878L77.504,121.878z"/>
		</g>
		<g id="XMLID_1517_">
			<path id="XMLID_2112_" fill="#FFFFFF" d="M77.854,121.977C77.854,121.977,77.903,121.977,77.854,121.977
				C77.903,121.977,77.854,121.977,77.854,121.977z"/>
		</g>
		<g id="XMLID_1516_">
			<path id="XMLID_2110_" fill="#FFFFFF" d="M77.555,121.878c0,0,0.05,0,0.099,0h-0.049H77.555z"/>
		</g>
		<g id="XMLID_1515_">
			<path id="XMLID_2108_" fill="#FFFFFF" d="M77.605,121.829h0.049C77.705,121.829,77.654,121.829,77.605,121.829z"/>
		</g>
		<g id="XMLID_1514_">
			<path id="XMLID_2106_" fill="#FFFFFF" d="M77.405,121.928c0.05,0,0.099-0.05,0.15-0.05h-0.051
				C77.504,121.878,77.455,121.878,77.405,121.928z"/>
		</g>
		<g id="XMLID_1502_">
			<path id="XMLID_2093_" fill="#FFFFFF" d="M87.934,120.979c0.051-0.098,0.201-0.248,0-0.098c0.051-0.05,0.1-0.102,0.15-0.15
				c-0.15-0.052-0.449-0.052-0.749-0.052c-0.15,0-0.25,0-0.399,0c-0.1,0-0.15,0-0.15,0c-0.15,0.052-0.349,0.052-0.549,0.052
				c0.051,0,0.101,0.101-0.099,0.049c0.05-0.149-0.3-0.049-0.45-0.149c0.15,0.049-0.499,0-0.298,0.101c-0.15,0,0-0.052-0.1-0.101
				c-0.15,0.049-0.35,0-0.549,0c-0.1,0-0.199,0-0.298,0h-0.15h-0.101h-0.049l0,0c0,0,0.049,0.049-0.05,0.101
				c-0.05,0-0.05-0.052-0.05-0.052v-0.049h-0.049c0,0,0,0-0.051,0c0,0,0-0.049-0.049-0.098c0,0.049,0,0.049-0.05,0
				c-0.399-0.75-0.999-1.401-1.348-2.196c0.049,0.098,0,0.049-0.05,0c0,0.049-0.051,0.049-0.051,0.049l-0.148-0.349
				c-0.101,0-0.2-0.3-0.3-0.3l0.049,0.099c-0.099-0.049-0.099,0.049-0.099,0.152l-0.199-0.3l-1.248,3.64l-1.098,0.3l0,0l0,0
				c-0.05,0-0.101,0.052-0.05,0.052l-0.199,0.049c0.099-0.049,0-0.149-0.15-0.199c0,0,0,0.05-0.101,0.099
				c0.05,0,0.3-0.049,0.2,0.052c-0.149,0.049-0.149,0.049-0.249,0.049c0.1,0.052-0.15,0.101-0.15,0.199l-1.098,0.299l0,0l-0.1,0.049
				c-0.05,0,0-0.049,0-0.049c0.049-0.049,0.1-0.049,0-0.049c0.1-0.049,0.15-0.098,0.199-0.098c0.1-0.052,0.15-0.052,0.25-0.104
				l0.05,0.052c0,0-0.15,0-0.2,0.052c0.05-0.052,0.3,0,0.399-0.104h-0.149c0.149-0.049,0.299-0.196,0.448-0.196
				c-0.1-0.052-0.049,0-0.199,0c0.15,0.049-0.45,0.098-0.25,0.147c-0.149-0.05-0.2,0.049-0.399,0c0,0,0.049,0-0.101,0.049
				c0,0,0,0-0.049,0.052l0,0l0,0l0,0c0.049,0,0.049,0,0.1,0l-0.051,0.052c-0.049,0-0.049,0.049-0.099,0.049
				c-0.1,0.049-0.2,0.098-0.249,0.098c-0.15,0.049,0.049-0.049-0.051-0.049l-0.15,0.098c-0.049-0.049-0.448,0.053-0.15-0.049
				l-0.298,0.102c-0.15,0-0.35,0.051-0.5,0.101c0.05,0.049,0.099,0.049,0.15,0.098c0.099,0.102,0.399,0.251,0.25,0.15l0.449,0.3l0,0
				c0.449,0.351,0.648,0.4,0.897,0.647c0.101,0.053,0.2,0.102,0.3,0.199v0.052c0.1,0.049,0.299,0.248,0.35,0.248
				c0.049,0.152,0.448,0.4,0.648,0.55l0.051-0.049c0.099,0.099,0.249,0.147,0.399,0.249v-0.05h0.049c0,0,0,0,0.051,0l0.05,0.05
				c0,0.051,0,0.051,0,0.1s0,0.15,0,0.199c0,0,0-0.101,0-0.15c-0.101,0.3,0.05,0.648-0.05,0.899c0,0.049,0,0.098,0,0.15l0,0
				c0,0,0,0,0,0.049c0,0.051,0,0.051-0.051,0.1c0-0.049,0-0.049,0.051-0.1c0,0.051,0,0.149,0,0.199l-0.051,0.049l0,0
				c0,0.103,0,0.052,0.051,0c0,0.052,0,0.103,0.05,0.103c-0.101,0.05,0,0.197-0.05,0.298c0.05,0.052,0,0.4,0.1,0.449
				c0,0,0,0.049,0,0c0,0.099-0.05,0.201,0,0.251l-0.05,0.049l0.1,0.198c-0.05,0.15-0.05,0.25-0.1,0.052
				c0.05,0.198,0.05,0.3,0.05,0.349c0,0.05,0,0.15,0.05,0.251l-0.05,0.049c0,0.099,0.05,0.199,0,0.349c0,0.049,0,0.099-0.05,0.15
				c0.149-0.052,0.399-0.248,0.698-0.45c0.05-0.049,0.15-0.098,0.201-0.148c0.05-0.05,0.099-0.102,0.149-0.102
				c0.1-0.049,0.199-0.147,0.3-0.198c-0.15-0.051,0.199-0.102,0.199-0.199c0.05,0,0.1,0,0.05,0.049
				c0.199-0.15,0.349-0.199,0.45-0.349c0.049,0,0,0.049,0,0.049s0.049-0.049,0.099-0.049c0.049,0,0,0.049-0.05,0.098
				c0.2-0.146,0.149-0.248,0.149-0.299c0.15-0.05,0.2-0.099,0.2-0.196c0.049,0,0.15,0,0,0.098c0.1-0.049,0.448-0.3,0.448-0.349
				c0.05,0,0.101-0.049,0.101-0.101c0.1-0.05,0.15-0.101,0.15-0.101c0.049-0.049,0.049-0.049,0.1-0.099h-0.051
				c0-0.049,0-0.049,0.051-0.099c0.049,0,0.1,0.05,0.15,0.099l0,0c0.298,0.199,0.149,0.05,0.448,0.199v-0.05
				c0.05-0.1,0.299,0.15,0.5,0.199l-0.051-0.049c0.1,0,0.25,0.251,0.35,0.3c0,0-0.051,0-0.101,0c0.25,0.147,0.05-0.049,0.25,0
				c0.05,0.049-0.1,0.049,0.05,0.147c0.05,0.051,0.449,0.051,0.599,0.152c-0.05-0.05-0.05-0.102,0.049-0.05
				c0.101,0,0.15,0.099,0.25,0.147c0.049,0.049,0.1,0.049,0.148,0.049c0,0,0.051,0,0.101,0c0.049,0,0.049,0,0.1,0
				c0.05,0,0.05,0.052,0.05,0.052c0.15,0.049,0.549,0.15,0.598,0.101c0.101,0.099,0.25,0.147,0.399,0.198
				c-0.049-0.148-0.15-0.351-0.199-0.497c-0.051-0.152-0.051-0.202,0-0.202l-0.15-0.498l0,0c-0.051-0.248-0.1-0.298-0.201-0.349
				c0-0.052,0,0,0.051,0c-0.051-0.349-0.1-0.349-0.25-0.648l0.049-0.053c-0.049-0.049-0.049-0.495-0.25-0.795c0,0,0,0,0.05,0.049
				c-0.149-0.349-0.149-0.947-0.35-0.898l0,0l0.051-0.15c-0.1,0.102-0.1,0.102-0.1,0.053c0-0.053,0-0.102-0.05-0.053
				c0.05-0.101,0.249-0.247,0.15-0.101l0,0c0.05,0.101,0.299-0.299,0.35-0.248c0.399-0.499,0.848-1,1.198-1.446h-0.1l0.148-0.149
				c0.05-0.052,0.101,0,0,0.101c0.101-0.052,0.15-0.202,0.101-0.251c0.049-0.049,0.099-0.049,0.099-0.049v0.049
				c0,0.049-0.05,0.15-0.05,0.099l0.05-0.099h-0.05c0.05-0.149,0.05-0.149,0.2-0.349c0.1-0.152,0.1-0.051,0.15-0.102
				c0,0,0.05,0,0.05-0.1l0.25-0.349L87.934,120.979z M79.151,121.729l-0.25,0.052C79.001,121.729,79.051,121.729,79.151,121.729z
				 M78.902,121.78L78.902,121.78L78.902,121.78L78.902,121.78z M76.457,122.227L76.457,122.227
				C76.256,122.275,76.357,122.275,76.457,122.227z M77.555,123.027c-0.051,0-0.1-0.051-0.2-0.101
				c-0.25-0.149-0.049-0.101-0.099-0.149c-0.2-0.149-0.3-0.202-0.45-0.251c-0.148-0.049-0.249-0.098-0.398-0.251
				c0.05,0,0.1,0,0.15-0.049c0.149,0,0.2,0,0.249,0c0.051,0,0.051,0.049,0.101,0.049c-0.05,0-0.101,0.053-0.15,0.053
				c0.049,0.049,0.1,0.101,0.15,0.149l-0.101-0.101c0.101,0.052,0.201,0.101,0.25,0.149c0,0,0,0-0.05-0.049l0.699,0.55
				c0,0-0.051,0-0.1,0C77.705,123.076,77.654,123.027,77.555,123.027z M78.553,123.726v-0.049l0.149,0.098
				C78.652,123.774,78.602,123.726,78.553,123.726z M79.501,124.523c0,0-0.249-0.248-0.249-0.352v-0.049l0.199,0.152l-0.051,0.05
				l0.051-0.05l0.2,0.147C79.601,124.472,79.55,124.523,79.501,124.523z M79.801,125.321l-0.05-0.201
				c0.05,0.052,0.1,0.152,0.149,0.25v0.349c-0.05-0.098-0.101-0.198-0.149-0.349L79.801,125.321z M79.85,127.667v0.15l-0.049-0.05
				c-0.05-0.052-0.05-0.101-0.05-0.101C79.801,127.667,79.801,127.667,79.85,127.667z M81.896,127.12c-0.049,0,0-0.053,0-0.053
				S81.896,127.067,81.896,127.12c-0.049,0-0.1,0-0.1-0.053l0.1-0.049c0,0,0,0,0,0.049l0.05-0.049l0.049-0.051
				c0.051,0,0.101,0,0.101,0L81.896,127.12z M87.784,121.23l-0.05,0.049C87.834,121.132,87.784,121.181,87.784,121.23z"/>
		</g>
		<g id="XMLID_1501_">
			<path id="XMLID_2091_" fill="#FFFFFF" d="M78.154,121.729C78.154,121.68,78.154,121.68,78.154,121.729h-0.101
				C78.104,121.68,78.154,121.729,78.154,121.729z"/>
		</g>
		<g id="XMLID_1500_">
			<path id="XMLID_2089_" fill="#FFFFFF" d="M78.502,121.78c0-0.052-0.099,0-0.2,0.049C78.353,121.829,78.452,121.78,78.502,121.78
				L78.502,121.78z"/>
		</g>
		<g id="XMLID_1499_">
			<path id="XMLID_2087_" fill="#FFFFFF" d="M78.652,121.729c0-0.049-0.05,0-0.099,0.052
				C78.602,121.729,78.602,121.729,78.652,121.729z"/>
		</g>
		<g id="XMLID_1498_">
			<path id="XMLID_2085_" fill="#FFFFFF" d="M77.205,122.028c0.101,0,0-0.052,0.051-0.052c0-0.049-0.1,0-0.15,0.052
				C77.056,122.028,77.056,122.08,77.205,122.028z"/>
		</g>
		<g id="XMLID_1497_">
			<polygon id="XMLID_2083_" fill="#FFFFFF" points="78.353,121.928 78.452,121.928 78.403,121.878 			"/>
		</g>
		<g id="XMLID_1496_">
			<path id="XMLID_2081_" fill="#FFFFFF" d="M77.854,122.08C77.854,122.08,77.854,122.028,77.854,122.08c-0.051,0-0.15,0-0.15,0.049
				L77.854,122.08z"/>
		</g>
		<g id="XMLID_1495_">
			<path id="XMLID_2079_" fill="#FFFFFF" d="M77.903,122.028c0.05,0,0.101-0.052,0.101-0.052S77.954,122.028,77.903,122.028z"/>
		</g>
		<g id="XMLID_1494_">
			<path id="XMLID_2077_" fill="#FFFFFF" d="M77.504,122.875c-0.049,0-0.099-0.049-0.099,0l0.15,0.102
				C77.605,122.927,77.555,122.927,77.504,122.875z"/>
		</g>
		<g id="XMLID_1493_">
			<polygon id="XMLID_2075_" fill="#FFFFFF" points="82.195,117.787 82.145,117.688 82.145,117.787 			"/>
		</g>
		<g id="XMLID_1492_">
			<path id="XMLID_2073_" fill="#FFFFFF" d="M82.045,117.588l-0.1-0.052c0,0,0.049,0.052,0.049,0.101L82.045,117.588z"/>
		</g>
	</g>
	<g id="XMLID_1421_">
		<g id="XMLID_1490_">
			<path id="XMLID_2070_" fill="#FFFFFF" d="M113.183,114.193c0-0.049-0.049-0.049-0.049-0.049
				C113.134,114.245,113.231,114.193,113.183,114.193z"/>
		</g>
		<g id="XMLID_1489_">
			<path id="XMLID_2068_" fill="#FFFFFF" d="M112.984,115.291v0.15V115.291z"/>
		</g>
		<g id="XMLID_1488_">
			<path id="XMLID_2066_" fill="#FFFFFF" d="M112.883,115.741L112.883,115.741v-0.102c-0.049,0.201-0.098,0.501-0.146,0.648
				C112.834,116.189,112.785,115.939,112.883,115.741z"/>
		</g>
		<g id="XMLID_1487_">
			<path id="XMLID_2064_" fill="#FFFFFF" d="M112.437,116.64C112.384,116.64,112.384,116.64,112.437,116.64
				c0,0.049-0.053,0.049-0.053,0.101C112.437,116.74,112.384,116.888,112.437,116.64z"/>
		</g>
		<g id="XMLID_1486_">
			<path id="XMLID_2062_" fill="#FFFFFF" d="M112.384,116.64C112.437,116.538,112.333,116.688,112.384,116.64L112.384,116.64z"/>
		</g>
		<g id="XMLID_1485_">
			<path id="XMLID_2060_" fill="#FFFFFF" d="M112.284,117.139v-0.15c-0.049,0-0.049,0.15-0.049,0.102
				C112.186,117.236,112.235,117.188,112.284,117.139z"/>
		</g>
		<g id="XMLID_1484_">
			<path id="XMLID_2058_" fill="#FFFFFF" d="M112.333,117.188v0.049V117.188z"/>
		</g>
		<g id="XMLID_1483_">
			<path id="XMLID_2056_" fill="#FFFFFF" d="M112.333,117.139c0,0,0,0,0-0.1v0.148C112.333,117.188,112.333,117.188,112.333,117.139
				z"/>
		</g>
		<g id="XMLID_1482_">
			<path id="XMLID_2054_" fill="#FFFFFF" d="M112.437,116.938c0.049-0.249,0-0.249-0.053,0
				C112.384,116.888,112.437,116.789,112.437,116.938z"/>
		</g>
		<g id="XMLID_1481_">
			<path id="XMLID_2052_" fill="#FFFFFF" d="M112.834,116.141c0,0.049-0.098,0.199-0.049,0.199l0.049-0.101V116.141z"/>
		</g>
		<g id="XMLID_1480_">
			<path id="XMLID_2050_" fill="#FFFFFF" d="M112.085,117.936v-0.1c-0.05,0.049-0.05,0.152-0.101,0.152
				C111.984,117.988,112.035,117.936,112.085,117.936z"/>
		</g>
		<g id="XMLID_1479_">
			<path id="XMLID_2048_" fill="#FFFFFF" d="M112.085,117.936v0.15C112.085,117.936,112.085,117.936,112.085,117.936z"/>
		</g>
		<g id="XMLID_1478_">
			<polygon id="XMLID_2046_" fill="#FFFFFF" points="112.384,117.337 112.384,117.039 112.384,117.389 			"/>
		</g>
		<g id="XMLID_1477_">
			<path id="XMLID_2044_" fill="#FFFFFF" d="M111.887,118.235L111.887,118.235L111.887,118.235z"/>
		</g>
		<g id="XMLID_1476_">
			<path id="XMLID_1670_" fill="#FFFFFF" d="M111.887,118.185L111.887,118.185L111.887,118.185z"/>
		</g>
		<g id="XMLID_1475_">
			<path id="XMLID_1668_" fill="#FFFFFF" d="M111.887,118.235L111.887,118.235L111.887,118.235L111.887,118.235z"/>
		</g>
		<g id="XMLID_1474_">
			<path id="XMLID_1666_" fill="#FFFFFF" d="M111.887,118.185L111.887,118.185L111.887,118.185z"/>
		</g>
		<g id="XMLID_1473_">
			<path id="XMLID_1664_" fill="#FFFFFF" d="M111.636,118.337c0.049-0.051-0.098-0.051-0.049-0.051
				c-0.099,0.051-0.201,0.1-0.251,0.148C111.437,118.386,111.488,118.337,111.636,118.337z"/>
		</g>
		<g id="XMLID_1472_">
			<path id="XMLID_1662_" fill="#FFFFFF" d="M111.984,118.286h-0.049H111.984L111.984,118.286z"/>
		</g>
		<g id="XMLID_1471_">
			<polygon id="XMLID_1660_" fill="#FFFFFF" points="111.936,118.337 111.984,118.286 111.984,118.286 111.984,118.286 
				111.984,118.286 			"/>
		</g>
		<g id="XMLID_1470_">
			<path id="XMLID_1658_" fill="#FFFFFF" d="M112.284,117.836c0-0.049-0.049,0-0.099-0.099
				C112.235,117.787,112.186,117.988,112.284,117.836z"/>
		</g>
		<g id="XMLID_1469_">
			<path id="XMLID_1656_" fill="#FFFFFF" d="M112.137,118.136C112.085,118.136,112.085,118.136,112.137,118.136
				c-0.052-0.05-0.052,0.15-0.052,0.15S112.137,118.086,112.137,118.136z"/>
		</g>
		<g id="XMLID_1468_">
			<polygon id="XMLID_1654_" fill="#FFFFFF" points="112.085,118.286 112.085,118.235 112.035,118.286 			"/>
		</g>
		<g id="XMLID_1467_">
			<path id="XMLID_1652_" fill="#FFFFFF" d="M111.488,118.435c-0.052,0.05-0.152,0.05-0.201,0.102c0.099,0,0.201-0.052,0.3-0.052
				C111.587,118.435,111.587,118.435,111.488,118.435z"/>
		</g>
		<g id="XMLID_1466_">
			<path id="XMLID_1650_" fill="#FFFFFF" d="M111.837,118.337L111.837,118.337L111.837,118.337z"/>
		</g>
		<g id="XMLID_1465_">
			<polygon id="XMLID_1648_" fill="#FFFFFF" points="110.437,118.833 110.488,118.833 110.488,118.833 			"/>
		</g>
		<g id="XMLID_1464_">
			<path id="XMLID_1646_" fill="#FFFFFF" d="M111.587,118.484c0.049,0,0.098-0.05,0.149-0.05
				C111.685,118.435,111.636,118.435,111.587,118.484C111.538,118.484,111.538,118.484,111.587,118.484z"/>
		</g>
		<g id="XMLID_1463_">
			<path id="XMLID_1644_" fill="#FFFFFF" d="M110.987,118.585c0.05,0,0.101,0,0.149,0
				C111.088,118.585,110.987,118.585,110.987,118.585z"/>
		</g>
		<g id="XMLID_1462_">
			<path id="XMLID_1642_" fill="#FFFFFF" d="M111.785,118.337L111.785,118.337L111.785,118.337z"/>
		</g>
		<g id="XMLID_1461_">
			<path id="XMLID_1640_" fill="#FFFFFF" d="M111.785,118.337c-0.049,0-0.049,0.049-0.101,0.049
				C111.785,118.386,111.785,118.386,111.785,118.337C111.837,118.337,111.785,118.337,111.785,118.337z"/>
		</g>
		<g id="XMLID_1460_">
			<path id="XMLID_1638_" fill="#FFFFFF" d="M110.788,118.734l0.049-0.049c-0.101,0-0.149,0-0.248,0
				c-0.101,0.049-0.101,0.098-0.101,0.098L110.788,118.734L110.788,118.734z"/>
		</g>
		<g id="XMLID_1459_">
			<path id="XMLID_1636_" fill="#FFFFFF" d="M111.037,118.783c0.201-0.049,0.1-0.098,0.201-0.146c-0.301,0.098,0.098-0.052-0.15,0
				c0.049-0.052,0.101-0.052,0.15-0.052c-0.05,0-0.102,0-0.15,0.052l0,0l0,0l0,0l0,0l0,0l0,0c-0.101,0,0,0,0,0l0,0l0,0l-0.3,0.146
				c0.049,0,0.149-0.049,0.3-0.098C111.088,118.686,110.938,118.734,111.037,118.783z"/>
		</g>
		<g id="XMLID_1458_">
			<path id="XMLID_1634_" fill="#FFFFFF" d="M112.384,118.037C112.333,118.037,112.333,118.037,112.384,118.037
				C112.333,118.037,112.333,118.086,112.384,118.037z"/>
		</g>
		<g id="XMLID_1457_">
			<path id="XMLID_1632_" fill="#FFFFFF" d="M112.284,118.136c0,0,0-0.05,0-0.099c0.049-0.049,0,0,0.049,0
				c0-0.049,0-0.152-0.049-0.049l0,0c-0.049,0.098-0.147,0.247-0.147,0.247C112.186,118.235,112.235,118.235,112.284,118.136z"/>
		</g>
		<g id="XMLID_1456_">
			<path id="XMLID_1630_" fill="#FFFFFF" d="M111.837,118.484l-0.25,0.101h0.149l0,0
				C111.887,118.536,111.837,118.536,111.837,118.484z"/>
		</g>
		<g id="XMLID_1455_">
			<polygon id="XMLID_1628_" fill="#FFFFFF" points="110.437,118.734 110.289,118.885 110.437,118.783 			"/>
		</g>
		<g id="XMLID_1454_">
			<polygon id="XMLID_1626_" fill="#FFFFFF" points="110.088,118.885 109.99,118.936 110.088,118.936 			"/>
		</g>
		<g id="XMLID_1453_">
			<path id="XMLID_1624_" fill="#FFFFFF" d="M111.287,124.423l0.049-0.049c0-0.099,0-0.15,0-0.202
				C111.287,124.325,111.238,124.423,111.287,124.423z"/>
		</g>
		<g id="XMLID_1452_">
			<path id="XMLID_1622_" fill="#FFFFFF" d="M108.792,120.882c0.049,0.049,0.148,0.146,0.201,0.146
				C108.892,120.931,108.841,120.882,108.792,120.882z"/>
		</g>
		<g id="XMLID_1451_">
			<path id="XMLID_1620_" fill="#FFFFFF" d="M118.62,125.621c0.052,0,0.104,0,0.104,0
				C118.62,125.621,118.571,125.621,118.62,125.621z"/>
		</g>
		<g id="XMLID_1450_">
			<path id="XMLID_1618_" fill="#FFFFFF" d="M109.24,121.181C109.189,121.181,109.189,121.181,109.24,121.181
				c-0.1-0.049-0.149-0.101-0.247-0.152C109.042,121.132,109.141,121.181,109.24,121.181z"/>
		</g>
		<g id="XMLID_1449_">
			<path id="XMLID_1616_" fill="#FFFFFF" d="M114.332,114.991c0,0-0.052-0.049-0.101-0.098
				C114.28,114.894,114.332,114.942,114.332,114.991z"/>
		</g>
		<g id="XMLID_1448_">
			<path id="XMLID_1614_" fill="#FFFFFF" d="M108.742,119.334C108.841,119.284,108.742,119.334,108.742,119.334L108.742,119.334z"/>
		</g>
		<g id="XMLID_1447_">
			<path id="XMLID_1612_" fill="#FFFFFF" d="M109.141,119.432L109.141,119.432L109.141,119.432z"/>
		</g>
		<g id="XMLID_1446_">
			<path id="XMLID_1610_" fill="#FFFFFF" d="M108.742,119.334c0,0,0.05,0,0.099,0h-0.049
				C108.792,119.334,108.792,119.334,108.742,119.334z"/>
		</g>
		<g id="XMLID_1445_">
			<path id="XMLID_1608_" fill="#FFFFFF" d="M108.841,119.284h0.051C108.892,119.284,108.892,119.284,108.841,119.284z"/>
		</g>
		<g id="XMLID_1444_">
			<path id="XMLID_1606_" fill="#FFFFFF" d="M108.541,119.383c0.051,0,0.152-0.049,0.201-0.049h-0.049
				C108.693,119.334,108.642,119.383,108.541,119.383z"/>
		</g>
		<g id="XMLID_1432_">
			<path id="XMLID_1593_" fill="#FFFFFF" d="M120.816,117.885c0.051-0.147,0.251-0.349,0-0.098c0.051-0.05,0.103-0.099,0.201-0.199
				c-0.15-0.052-0.55,0-0.851,0c-0.146,0-0.299,0-0.446,0c-0.101,0-0.149,0-0.201,0c-0.198,0.049-0.398,0.049-0.6,0.049
				c0.051,0,0.104,0.101-0.098,0.101c0.049-0.149-0.349-0.049-0.551-0.201c0.152,0.101-0.599,0.052-0.349,0.152
				c-0.147,0,0-0.052-0.147-0.101c-0.201,0.049-0.4,0.049-0.65,0c-0.102,0-0.249,0-0.349,0h-0.199h-0.101h-0.049l0,0
				c0,0,0.049,0.049-0.053,0.101c-0.049,0-0.049-0.052-0.098-0.052v-0.049h-0.049h-0.052c0,0-0.049-0.052-0.049-0.101
				c0,0.049,0,0.101-0.052,0.049c-0.496-0.848-1.248-1.548-1.646-2.495c0.05,0.152,0,0.051-0.05,0
				c0.05,0.051-0.049,0.051-0.049,0.051l-0.202-0.399c-0.098,0-0.25-0.349-0.349-0.349l0.099,0.1
				c-0.099-0.051-0.099,0.05-0.099,0.15l-0.25-0.349l-1.296,4.291l-1.298,0.399l0,0l0,0c-0.101,0.05-0.149,0.05-0.101,0.05
				l-0.199,0.049c0.099-0.099,0-0.201-0.201-0.251c0,0,0,0.05-0.147,0.102c0.05,0,0.349-0.052,0.251,0.051
				c-0.201,0.099-0.201,0.05-0.3,0.05c0.099,0.049-0.152,0.146-0.152,0.199l-1.247,0.399l0,0l-0.099,0.049
				c-0.049,0-0.049-0.049,0-0.049c0.05-0.051,0.099-0.051,0-0.051c0.099-0.05,0.149-0.102,0.251-0.15
				c0.098-0.049,0.198-0.099,0.3-0.099l0.049,0.05c0,0-0.152,0-0.201,0.049c0.1-0.049,0.349,0,0.451-0.149h-0.152
				c0.152-0.102,0.3-0.248,0.501-0.248c-0.1-0.05-0.051,0-0.201,0c0.15,0.049-0.499,0.146-0.25,0.199
				c-0.147-0.053-0.249,0.049-0.447,0c0,0,0.099,0-0.102,0.049c0,0,0,0-0.049,0.051l0,0l0,0l0,0c0.049,0,0.102,0,0.102,0
				s-0.053,0.05-0.102,0.05c-0.051,0-0.051,0.049-0.149,0.049c-0.101,0.049-0.25,0.101-0.299,0.15c-0.15,0.051,0.049-0.05-0.05-0.05
				l-0.152,0.101c-0.049-0.051-0.548,0.049-0.197-0.051l-0.351,0.1c-0.199,0.05-0.4,0.1-0.548,0.15
				c0.049,0.049,0.147,0.101,0.199,0.101c0.149,0.099,0.449,0.248,0.249,0.148l0.501,0.299l0,0c0.55,0.4,0.797,0.449,1.046,0.749
				c0.1,0.052,0.201,0.101,0.349,0.199v0.049c0.152,0.051,0.352,0.3,0.4,0.3c0.051,0.201,0.547,0.4,0.748,0.599l0.05-0.049
				c0.149,0.098,0.3,0.199,0.501,0.3v-0.049c0,0,0.05,0,0.05,0.049c0,0,0,0,0.049,0l0.049,0.049c0,0.049,0,0.102-0.049,0.102
				c0,0.049,0,0.149,0,0.247c0,0,0-0.098,0-0.147c-0.15,0.349,0.099,0.748,0,1.047c0,0.101,0,0.149,0,0.202l0,0c0,0,0,0,0,0.049
				s0,0.049-0.049,0.098c0-0.049,0-0.049,0.049-0.098c0,0.049,0,0.146,0,0.25l-0.049,0.05l0,0c0,0.098,0.049,0.049,0.049,0
				c0,0.049,0,0.098,0.049,0.098c-0.098,0.049,0.05,0.25-0.049,0.349c0.049,0.052,0.049,0.452,0.149,0.501c0,0,0,0.049,0,0
				c0,0.098,0,0.199,0,0.3l-0.101,0.049l0.101,0.199c-0.051,0.149-0.051,0.251-0.149,0.051c0.049,0.249,0.049,0.3,0.049,0.398
				s0,0.15,0.05,0.3l-0.05,0.05c0,0.149,0.05,0.25,0.05,0.399c0,0.049,0,0.102-0.05,0.199c0.152-0.098,0.449-0.3,0.801-0.55
				c0.099-0.049,0.147-0.099,0.247-0.197c0.053-0.051,0.15-0.103,0.2-0.151c0.101-0.1,0.25-0.148,0.348-0.199
				c-0.195-0.049,0.251-0.102,0.202-0.199c0.049,0,0.098-0.05,0.049,0.049c0.201-0.198,0.397-0.198,0.501-0.397
				c0.049,0,0,0.098,0,0.098s0.049-0.098,0.098-0.098c0.05,0,0,0.049-0.049,0.098c0.249-0.198,0.199-0.3,0.147-0.397
				c0.152-0.049,0.201-0.101,0.25-0.201c0.051,0,0.15-0.05,0,0.101c0.102-0.049,0.552-0.349,0.503-0.4
				c0.049,0,0.098-0.099,0.146-0.099c0.101-0.049,0.149-0.101,0.202-0.149c0.049-0.052,0.049-0.052,0.146-0.101h-0.049
				c0-0.049,0-0.098,0.049-0.098c0.052,0,0.101,0.049,0.201,0.098l0,0c0.398,0.201,0.199,0,0.551,0.25v-0.049
				c0.098-0.101,0.349,0.199,0.548,0.199l-0.053-0.052c0.152,0,0.3,0.3,0.401,0.352c0,0-0.053,0-0.102,0
				c0.3,0.198,0.049-0.052,0.3,0c0.049,0.049-0.099,0.101,0.049,0.149c0.053,0.049,0.501,0.049,0.752,0.199
				c-0.052-0.052-0.103-0.102,0.05-0.102c0.098,0,0.198,0.102,0.3,0.152c0.049,0.05,0.098,0.05,0.146,0.05c0,0,0.052,0,0.101,0
				c0.052,0,0.052,0,0.102,0c0.049,0,0.049,0.049,0.049,0.049c0.201,0.049,0.648,0.15,0.697,0.098
				c0.102,0.102,0.3,0.202,0.452,0.251c-0.101-0.198-0.202-0.397-0.251-0.6c-0.049-0.146-0.1-0.247,0-0.247l-0.201-0.6l0,0
				c-0.099-0.248-0.147-0.352-0.249-0.4c0-0.049,0-0.049,0.051,0c-0.102-0.397-0.102-0.446-0.298-0.697l0.049-0.049
				c-0.049-0.05-0.101-0.6-0.299-0.948c0,0,0,0,0.049,0.049c-0.199-0.397-0.199-1.099-0.397-1.048l0,0c0,0,0.049-0.15,0.049-0.199
				c-0.102,0.148-0.102,0.098-0.102,0.049s0-0.099-0.049-0.049c0.102-0.15,0.3-0.251,0.199-0.099h-0.049
				c0.049,0.099,0.3-0.352,0.349-0.3c0.448-0.599,0.898-1.149,1.346-1.749h-0.099l0.15-0.198c0.051-0.049,0.101-0.049,0,0.101
				c0.101-0.05,0.149-0.251,0.101-0.3c0.049-0.049,0.098-0.101,0.098-0.101v0.052c0,0.049-0.049,0.146-0.049,0.098l0.098-0.098
				h-0.049c0.049-0.152,0.049-0.202,0.201-0.401c0.148-0.149,0.148-0.1,0.199-0.149c0,0,0.05,0,0.101-0.098l0.3-0.4L120.816,117.885
				z M110.638,119.083l-0.25,0.102C110.437,119.132,110.54,119.083,110.638,119.083z M110.289,119.185L110.289,119.185
				L110.289,119.185L110.289,119.185z M107.494,119.783L107.494,119.783C107.293,119.832,107.345,119.832,107.494,119.783z
				 M108.841,120.68c-0.049-0.049-0.147-0.049-0.249-0.098c-0.299-0.201-0.051-0.102-0.1-0.15c-0.199-0.149-0.349-0.198-0.548-0.3
				c-0.15-0.051-0.3-0.149-0.45-0.248c0.049,0,0.1-0.052,0.199-0.052c0.199,0,0.251,0,0.3,0c0.051,0,0.051,0.052,0.15,0.052
				c-0.049,0-0.1,0.049-0.15,0.049c0.102,0.05,0.102,0.1,0.199,0.199l-0.098-0.1c0.098,0.049,0.25,0.151,0.299,0.201
				c0,0,0-0.05-0.049-0.05l0.845,0.597c-0.049,0-0.049,0-0.099,0C108.94,120.731,108.892,120.68,108.841,120.68z M110.039,121.43
				v-0.051l0.201,0.102C110.141,121.48,110.088,121.43,110.039,121.43z M111.137,122.328c0,0-0.3-0.3-0.3-0.4v-0.05l0.2,0.15
				l-0.05,0.101l0.101-0.049l0.199,0.146C111.238,122.275,111.188,122.328,111.137,122.328z M111.538,123.225l-0.05-0.248
				c0.05,0.051,0.099,0.199,0.196,0.299v0.401c-0.098-0.102-0.146-0.251-0.196-0.401L111.538,123.225z M111.685,125.97v0.201
				c0-0.051-0.049-0.051-0.049-0.1c-0.049-0.053-0.049-0.102-0.049-0.102S111.636,125.97,111.685,125.97z M114.032,125.272
				c-0.051,0-0.051-0.049,0-0.101C114.032,125.224,113.981,125.224,114.032,125.272c-0.101,0-0.101,0-0.101-0.049l0.101-0.104v0.052
				l0.049-0.052l0.049-0.049c0.051,0,0.102,0,0.15-0.05L114.032,125.272z M120.668,118.136l-0.049,0.049
				C120.668,118.086,120.668,118.086,120.668,118.136z"/>
		</g>
		<g id="XMLID_1431_">
			<path id="XMLID_1591_" fill="#FFFFFF" d="M109.439,119.083L109.439,119.083l-0.146,0.049
				C109.391,119.083,109.439,119.083,109.439,119.083z"/>
		</g>
		<g id="XMLID_1430_">
			<path id="XMLID_1589_" fill="#FFFFFF" d="M109.89,119.185c0-0.102-0.102,0-0.199,0.049
				C109.69,119.233,109.788,119.185,109.89,119.185L109.89,119.185z"/>
		</g>
		<g id="XMLID_1429_">
			<path id="XMLID_1587_" fill="#FFFFFF" d="M109.99,119.132c0-0.049-0.05,0-0.101,0.053
				C109.94,119.132,109.99,119.132,109.99,119.132z"/>
		</g>
		<g id="XMLID_1428_">
			<path id="XMLID_1585_" fill="#FFFFFF" d="M108.394,119.483c0.099,0,0-0.052,0.05-0.052c0.049-0.049-0.099,0-0.202,0.052
				C108.192,119.533,108.144,119.584,108.394,119.483z"/>
		</g>
		<g id="XMLID_1427_">
			<polygon id="XMLID_1583_" fill="#FFFFFF" points="109.69,119.383 109.788,119.334 109.739,119.284 			"/>
		</g>
		<g id="XMLID_1426_">
			<path id="XMLID_1581_" fill="#FFFFFF" d="M109.141,119.533C109.141,119.533,109.141,119.483,109.141,119.533
				c-0.05,0-0.2,0-0.2,0.051L109.141,119.533z"/>
		</g>
		<g id="XMLID_1425_">
			<path id="XMLID_1579_" fill="#FFFFFF" d="M109.189,119.483c0.051,0,0.104-0.052,0.152-0.052
				C109.293,119.432,109.189,119.483,109.189,119.483z"/>
		</g>
		<g id="XMLID_1424_">
			<path id="XMLID_1577_" fill="#FFFFFF" d="M108.742,120.48c-0.049,0-0.101-0.049-0.101,0l0.199,0.102
				C108.841,120.582,108.792,120.533,108.742,120.48z"/>
		</g>
		<g id="XMLID_1423_">
			<polygon id="XMLID_1575_" fill="#FFFFFF" points="113.981,114.393 113.932,114.245 113.932,114.393 			"/>
		</g>
		<g id="XMLID_1562_">
			<path id="XMLID_1563_" fill="#FFFFFF" d="M14.132,168.686c-0.499,0-0.999-0.049-1.447-0.15c-3.293-0.599-5.839-3.244-6.288-6.587
				c-0.299-1.997-0.35-4.092-0.149-6.287c0.049-0.648,0-1-0.101-1.196c-0.399-1.198-0.498-2.496-0.298-3.743
				c0.149-0.801,0.199-1.198,0.25-1.547c0.099-0.698,0.199-1.15,0.398-2.495c0.15-0.85,0.3-1.799,0.399-2.795
				c-0.449-0.697-0.798-1.398-1.047-2.196c-0.599-1.694-0.549-3.593,0.049-5.29c0.449-1.146,1.098-2.245,1.997-3.093
				c0.448-3.394,0.948-6.638,1.446-9.73c0.699-4.092,1.597-8.235,2.745-12.326c-2.145,0.051-4.292-0.648-6.088-2.044
				c-2.894-2.196-3.892-6.091-2.395-9.382c0.798-1.847,1.996-3.443,3.492-4.741c0.101-0.349,0.25-0.699,0.45-1.047
				c0.149-0.3,0.299-0.549,0.498-0.849c0.051-0.1,0.101-0.201,0.201-0.3c0.2-2.046,0.998-3.942,2.394-5.539l0.051-0.05
				c0.849-0.948,1.896-1.797,3.094-2.445c0.298-0.149,0.548-0.299,0.798-0.499c0.897-0.599,1.996-1.248,3.244-1.946
				c0.249-0.998,0.599-1.946,1.097-2.844c0.15-0.648,0.349-1.347,0.449-2.096c-0.548,0.1-1.097,0.1-1.646,0.1
				c-0.699,0-1.397-0.15-2.096-0.349c-0.648,0.15-1.298,0.3-1.996,0.45c-0.449,0.1-0.898,0.1-1.348,0.1
				c-2.994,0-5.688-1.697-7.035-4.341c-1.547-3.095-0.849-6.886,1.696-9.232c2.795-2.595,5.689-5.239,8.533-7.834
				c2.146-1.945,4.491-3.742,7.086-5.389c0-0.549,0.05-1.098,0.05-1.646c0.15-2.146,0.499-4.292,1.098-6.338
				c0.549-1.996,1.896-3.692,3.742-4.74c1.946-1.098,4.192-1.646,6.688-1.747c0.298,0,0.549,0,0.798,0
				c1.647,0,3.343,0.199,4.941,0.549c2.344,0.549,4.49,1.546,6.336,2.943c0.299,0.25,0.648,0.5,0.948,0.798
				c1.098-0.049,2.196-0.1,3.293-0.15c0.75,0,1.497-0.049,2.196-0.049c2.246,0,4.542,0.099,6.737,0.349
				c3.044,0.35,5.988,0.948,8.732,1.797c3.243,1.047,6.087,2.595,8.433,4.591c0.449,0.349,0.848,0.798,1.197,1.246
				c0.549,0.75,1.148,1.547,1.748,2.396c0.997,1.397,1.696,3.044,2.095,4.89c0.05,0.051,0.05,0.15,0.101,0.201
				c0.349,0.699,0.549,1.497,0.697,2.245l0.15,0.998c0.101,0.699,0.101,1.348,0.05,2.046c-0.699,6.188-2.744,11.426-6.038,15.619
				c-2.445,3.093-5.29,5.888-8.433,8.333c0,0,0,0.049-0.051,0.049c0.15,0.101,0.351,0.201,0.5,0.35
				c0.898,0.598,1.896,1.197,2.943,1.796c0.649,0.349,1.248,0.798,1.797,1.348c1.647,1.646,3.293,3.593,4.89,5.837
				c1.997,2.745,3.393,5.838,4.242,9.183c0,0.1,0.05,0.148,0.05,0.249c0.399,1.947,0.649,3.844,0.748,5.639
				c0.399,0.049,0.849,0.149,1.248,0.248l0.1,0.052c0.549,0.149,1.049,0.399,1.547,0.648c0.05-0.948,0.099-1.847,0.2-2.743l0.1-1
				c0-0.199,0.05-0.45,0.099-0.799l0.1-0.746c0-0.152,0.05-0.352,0.05-0.501l0.2-1.548c-0.15-1.198-0.051-2.295,0.1-3.243
				c0.099-0.849,0.199-1.646,0.3-2.295c0.099-0.848,0.199-1.547,0.249-2.295c0.051-0.599,0.15-1.197,0.3-1.796c0-0.05,0-0.1,0-0.1
				c-0.25-1.997-0.051-3.992,0.548-5.839c0-0.099,0-0.249-0.05-0.498c-0.1-1.047-0.051-2.046,0.25-3.045
				c0.2-0.748,0.299-1.596,0.35-2.544l0.049-4.989c0-1.847,0.101-3.693,0.25-5.44c0.149-1.896,0.598-3.692,1.297-5.339
				c-0.398-0.848-0.699-1.747-0.798-2.694c-0.15-1.547-0.15-3.094,0.049-4.691c-0.349-1.396-0.349-2.844,0.05-4.191
				c-0.099-1.047-0.05-2.046,0.1-3.044c0.4-2.694,1.997-5.04,4.442-6.537c0.299-0.15,0.599-0.349,0.897-0.448
				c0.101-0.65,0.2-1.298,0.399-1.947c0.05-0.749,0.201-1.547,0.45-2.246c0.05-0.398,0.149-0.798,0.299-1.146
				c0-0.05,0-0.101,0-0.149c0.1-0.948,0.349-1.797,0.748-2.646c0.3-0.749,0.699-1.447,1.199-2.096
				c1.596-2.046,4.092-3.193,6.734-2.994c0.4,0.051,0.801,0.051,1.101,0.1l-0.102,1.048l0.15-1.048
				c0.697,0.101,1.397,0.25,2.046,0.5c1.697,0.598,3.144,1.746,4.091,3.243c0.301,0.399,0.601,0.799,0.848,1.248
				c0.202,0.349,0.349,0.749,0.501,1.148c0.349,0.798,0.548,1.597,0.648,2.445c0.05,0.199,0.1,0.399,0.148,0.649
				c0.25,0.849,0.299,1.697,0.25,2.595c0.101,0.798,0.149,1.596,0.101,2.345c0.4,0.25,0.749,0.499,1.098,0.849
				c2.046,1.846,3.193,4.242,3.242,6.836c0.052,0.997-0.049,1.996-0.3,3.043c0.251,1.397,0.051,2.845-0.446,4.192
				c0,1.596-0.202,3.144-0.551,4.641c-0.199,0.847-0.548,1.646-1.047,2.445c0.549,2.894,0.349,5.639-0.55,8.283c0,0,0,0,0,0.05
				c0.648,1.896,0.55,3.992-0.3,5.838c0,1.047-0.146,2.046-0.548,2.994c-0.1,0.249-0.149,0.449-0.198,0.648
				c-0.101,0.25-0.152,0.549-0.25,0.8c-0.251,2.893-0.698,5.638-1.397,8.183c-0.15,0.598-0.349,1.047-0.45,1.347
				c0,0.1-0.049,0.349-0.149,0.798c-0.049,0.35-0.102,1.047-0.15,1.646c-0.049,0.898-0.098,1.896-0.25,2.845
				c0,0.148-0.049,0.299-0.049,0.35c0.101,1.048,0.152,2.145,0,4.139c0,0.251,0,0.501-0.05,0.752c0,0.098-0.049,0.248-0.049,0.349
				c0.147,0,0.349,0,0.499,0c0.247,0,0.449-0.049,0.648-0.049c0.647,0,1.349,0.098,1.947,0.248l0.098,0.049
				c0.398,0.101,0.799,0.251,1.198,0.4c-0.152-2.646-0.152-5.29-0.049-7.885c0.196-4.791,0.648-9.132,1.298-12.923V86.2
				c0.599-3.193,1.247-6.437,1.944-9.68c0.798-3.493,1.798-6.836,2.994-9.98c1.247-3.194,2.694-6.237,4.34-9.032
				c1.798-3.044,3.993-5.738,6.44-8.034c0.397-0.399,0.795-0.749,1.247-1.148c0.049-0.25,0.146-0.549,0.248-0.798
				c0.351-0.999,0.898-1.947,1.697-2.895c2.395-3.992,6.188-6.786,10.978-8.084c0.6-0.15,1.147-0.249,1.747-0.249
				c0.847-0.049,1.844-0.15,2.895-0.399c1.744-0.399,3.492-0.699,5.236-0.948c2.247-0.299,4.492-0.299,6.688,0
				c2.247,0.3,4.342,1.098,6.288,2.295c1.996,0.65,3.794,1.697,5.238,3.144c0.452,0.45,0.898,0.899,1.349,1.398
				c0.647,0.399,1.195,0.897,1.746,1.497c0.599,0.699,1.098,1.497,1.448,2.396c0.147,0.199,0.3,0.349,0.496,0.549
				c0.352,0.399,0.7,0.798,0.948,1.248c1.4,2.245,2.647,4.839,3.646,7.684c0.996,2.745,1.795,5.689,2.293,8.633
				c0.6,3.493,0.899,6.387,0.899,8.882c0,1.197,0.049,2.544,0.101,3.992c0.199,0.449,0.4,0.897,0.498,1.347
				c0.149,0.499,0.251,1.047,0.251,1.597c0.248,1.049,0.248,2.146,0.049,3.144c0.099,0.449,0.199,0.798,0.251,1.098
				c0.299,1.148,0.349,2.345,0.146,3.493c0,0.049,0,0.1,0,0.15c0,0.549,0,1.147-0.098,1.696c0.098,1.199-0.049,2.445-0.501,3.593
				c-0.099,0.3-0.248,0.549-0.397,0.849c0,0.897-0.05,1.797-0.15,2.694c0.7,1.197,1.049,2.595,1.049,3.992
				c0,1.844-0.251,3.493-0.697,4.988c-0.403,1.349-0.951,2.596-1.599,3.694c-0.75,1.297-1.896,2.345-3.245,3.046
				c-0.3,0.146-0.397,0.299-0.496,0.446c-0.801,1.199-1.699,2.397-2.547,3.492c-0.848,1.7-1.795,3.395-2.793,5.04
				c2.245,0.104,4.289,1.149,5.688,2.896c0.199,0.248,0.397,0.499,0.548,0.749c0,0,0,0,0.052,0h0.297
				c0.401,0,0.799,0.05,1.248,0.099c0.749,0.102,1.496,0.349,2.146,0.648c0.848,0.152,1.795,0.4,2.893,0.751l0,0
				c3.545,1.096,5.789,4.441,5.489,8.132c-0.3,3.691-3.042,6.588-6.734,7.135c-2.247,0.3-4.543,0.648-6.938,0.949
				c-2.396,0.3-4.792,0.648-7.184,0.947c-2.397,0.3-4.741,0.648-7.088,0.948c-2.245,0.299-4.441,0.647-6.536,0.947
				c-0.251,0.053-0.499,0.053-0.749,0.102c-1.847,0.1-3.792,0.199-5.688,0.351c-1.199,0.099-2.446-0.151-3.594-0.6
				c-0.352,0.2-0.7,0.349-1,0.499c-0.848,0.401-1.694,0.648-2.594,0.701c-0.397,0.049-0.797,0.098-1.146,0.146
				c-0.498,0.101-1.048,0.201-1.547,0.349c-0.548,0.152-1.099,0.201-1.648,0.201c-2.245,0.05-4.34-0.201-6.287-0.696
				c-0.747,0.446-1.496,0.795-2.344,0.947c-1.697,0.397-3.394,0.845-4.94,1.296c-2.346,0.649-4.839,0.949-7.386,0.848
				c-1.098,0.199-2.196,0.3-3.244,0.3h-0.199c-0.349,0-0.749,0-1.147,0c-0.599,0.199-1.247,0.349-1.847,0.45
				c-0.551,0.098-1.146,0.198-1.746,0.25c-1.547,0.896-3.392,1.247-5.141,0.997c-0.147,0.049-0.349,0.049-0.498,0.098
				c-0.749,0.152-1.545,0.202-2.296,0.152c-1.249-0.103-2.494-0.051-3.641,0.147c-1.948,0.301-3.994,0.501-6.139,0.551
				c-1.547,0.349-3.094,0.6-4.741,0.747c-1.646,0.152-3.292,0.299-4.939,0.399c-1.398,0.102-2.745,0.248-4.092,0.45
				c-0.799,0.098-1.547,0.299-2.195,0.599c-0.899,0.397-1.847,0.599-2.795,0.648c-0.05,0-0.05,0-0.099,0
				c-0.749,0.301-1.547,0.499-2.346,0.6c-1.397,0.648-2.994,0.847-4.491,0.648c-0.05,0-0.1,0-0.1,0
				c-0.549,0.147-1.148,0.3-1.697,0.548c-1.446,0.547-2.794,0.65-3.692,0.699c-1.098,0.349-2.046,0.6-2.943,0.747
				c-1.298,0.501-2.546,0.7-3.544,0.899c-0.149,0.049-0.649,0.1-0.748,0.148c-2.544,0.75-14.122,0.75-16.417,0.75
				c-1.047,0-2.045,0-2.943,0c-1.997-0.049-3.893-0.799-5.29-2.196c-1.397,0.251-2.844,0.15-4.191-0.349
				c-0.35-0.152-0.698-0.201-1.047-0.25c-0.999-0.099-1.946-0.3-2.845-0.6c-0.199,0.3-0.349,0.6-0.549,0.85
				c-0.847,1.198-1.996,2.095-3.293,2.643l0,0c-0.399,1.648-1.047,3.196-1.846,4.593C19.52,167.138,16.926,168.686,14.132,168.686z
				 M14.98,108.606l-0.5,1.694c-1.297,4.544-2.344,9.082-3.093,13.623c-0.499,3.196-1.048,6.536-1.497,10.03l-0.05,0.401
				l-0.298,0.248c-0.75,0.648-1.349,1.547-1.697,2.494c-0.449,1.249-0.449,2.597-0.051,3.845c0.25,0.697,0.6,1.345,0.999,1.994
				l0.25,0.3l-0.049,0.397c-0.101,1.198-0.25,2.349-0.449,3.395c-0.25,1.296-0.299,1.746-0.399,2.397
				c-0.05,0.349-0.101,0.795-0.25,1.596c-0.15,0.896-0.101,1.844,0.199,2.744c0.2,0.547,0.249,1.247,0.2,2.046
				c-0.2,2.045-0.149,3.993,0.15,5.788c0.349,2.395,2.195,4.34,4.59,4.789c0.349,0.052,0.699,0.101,1.047,0.101
				c2.046,0,3.942-1.098,4.991-2.893c0.699-1.248,1.248-2.597,1.647-4.043c0.049-0.15,0.099-0.3,0.099-0.449l0.051-0.249l0.149-0.2
				c0.049-0.05,0.1-0.1,0.149-0.15l0.2-0.199l0.25-0.101c1.098-0.4,1.997-1.098,2.694-2.046c0.3-0.446,0.599-0.948,0.849-1.446
				l0.449-0.848l0.898,0.397c0.998,0.398,2.045,0.697,3.144,0.799c0.5,0.051,0.999,0.199,1.547,0.351
				c1.047,0.399,2.146,0.448,3.243,0.197l0.948-0.197l0.399,0.448c1.048,1.198,2.595,1.896,4.192,1.944c0.948,0,1.896,0,2.944,0
				c4.99,0,13.972-0.147,15.868-0.697c0.15-0.049,0.449-0.099,0.899-0.199c0.948-0.198,2.095-0.4,3.292-0.847l0.2-0.052
				c0.897-0.149,1.847-0.4,2.895-0.749l0.15-0.05h0.15c0.798,0,1.945-0.099,3.144-0.55c0.699-0.248,1.396-0.447,2.046-0.648h0.049
				c0,0,0.101,0,0.3,0c0.15,0,0.299,0,0.499,0.052c1.148,0.198,2.345,0,3.394-0.498l0.15-0.102h0.199
				c0.749-0.101,1.447-0.247,2.096-0.547l0.099-0.053h0.1c0.05,0,0.15,0,0.2-0.049h0.15c0.748-0.051,1.446-0.198,2.095-0.498
				c0.849-0.4,1.747-0.648,2.744-0.801c1.398-0.196,2.795-0.349,4.242-0.447c1.597-0.101,3.244-0.25,4.891-0.399
				c1.546-0.15,3.094-0.401,4.541-0.75h0.1h0.1c2.046-0.049,4.042-0.199,5.938-0.548c1.349-0.198,2.746-0.248,4.192-0.149
				c0.548,0.05,1.147,0,1.697-0.099c0.25-0.051,0.499-0.101,0.746-0.151l0.201-0.049l0.199,0.049
				c1.398,0.25,2.845-0.049,4.041-0.797l0.201-0.1l0.349-0.053c0.599-0.098,1.198-0.146,1.748-0.247
				c0.548-0.102,1.146-0.25,1.646-0.45l0.198-0.049h0.199c0.45,0,0.898,0,1.296,0h0.202c0.948,0,1.945-0.101,2.994-0.3h0.101h0.098
				c2.347,0.099,4.691-0.149,6.838-0.749c1.597-0.449,3.292-0.896,5.04-1.296c0.746-0.15,1.396-0.499,1.994-0.899l0.4-0.3
				l0.498,0.15c1.896,0.498,3.942,0.798,6.138,0.749c0.4,0,0.798-0.053,1.199-0.15c0.547-0.149,1.098-0.251,1.647-0.349
				c0.398-0.101,0.897-0.152,1.346-0.201c0.648-0.049,1.298-0.249,1.896-0.548c0.449-0.198,0.898-0.449,1.397-0.699l0.498-0.249
				l0.499,0.249c0.898,0.501,1.947,0.699,2.993,0.647c1.945-0.098,3.842-0.248,5.688-0.349c0.201,0,0.349-0.049,0.55-0.049
				c2.096-0.349,4.344-0.649,6.587-0.948c2.344-0.3,4.692-0.648,7.086-0.948c2.395-0.3,4.792-0.648,7.185-0.947
				c2.397-0.3,4.69-0.648,6.936-0.949c2.647-0.397,4.691-2.494,4.893-5.189c0.198-2.693-1.397-5.141-3.994-5.938l0,0
				c-1.046-0.35-1.944-0.548-2.743-0.7h-0.15l-0.148-0.05c-0.549-0.248-1.099-0.446-1.697-0.548c-0.3-0.051-0.6-0.051-0.898-0.051
				h-0.3l0,0c-0.249,0-0.448,0-0.698,0h-0.6l-0.299-0.548c-0.2-0.349-0.398-0.648-0.648-0.948c-1.096-1.349-2.695-2.096-4.441-2.096
				h-0.3l-0.25-0.1c-0.3-0.15-0.596-0.249-0.997-0.349l-1.346-0.401l0.747-1.198c1.247-1.994,2.396-4.091,3.443-6.184l0.049-0.104
				l0.051-0.099c0.848-1.098,1.746-2.244,2.545-3.442c0.352-0.499,0.749-0.848,1.3-1.147c0.996-0.499,1.795-1.247,2.343-2.247
				c0.55-0.948,1.049-2.044,1.397-3.242c0.399-1.297,0.6-2.746,0.6-4.391c0-1.098-0.3-2.196-0.896-3.144l-0.202-0.299l0.05-0.349
				c0.101-0.999,0.152-2.046,0.152-3.144v-0.299l0.146-0.249c0.15-0.25,0.3-0.5,0.401-0.798c0.349-0.849,0.448-1.797,0.349-2.695
				v-0.15v-0.15c0.1-0.499,0.1-0.948,0.1-1.447v-0.05v-0.049c0-0.05,0-0.149,0-0.249v-0.101v-0.1c0.148-0.849,0.148-1.746-0.1-2.646
				c-0.102-0.398-0.2-0.897-0.349-1.446l-0.053-0.2l0.053-0.199c0.198-0.849,0.148-1.697-0.053-2.544l-0.049-0.201
				c0-0.398-0.099-0.848-0.198-1.247c-0.102-0.399-0.248-0.798-0.45-1.147l-0.098-0.201v-0.249
				c-0.102-1.598-0.152-3.045-0.102-4.342c0-2.345-0.25-5.14-0.847-8.483c-0.501-2.844-1.248-5.639-2.195-8.284
				c-1-2.695-2.147-5.14-3.443-7.285c-0.202-0.299-0.452-0.649-0.7-0.898c-0.248-0.3-0.498-0.549-0.7-0.798l-0.099-0.15l-0.049-0.15
				c-0.251-0.699-0.6-1.347-1.101-1.896c-0.397-0.449-0.844-0.849-1.345-1.148l-0.15-0.1l-0.101-0.099
				c-0.447-0.499-0.896-0.948-1.396-1.448c-1.247-1.246-2.795-2.145-4.543-2.694l-0.147-0.049l-0.102-0.05
				c-1.697-1.098-3.592-1.747-5.538-2.046c-1.996-0.299-4.042-0.299-6.137,0c-1.697,0.25-3.393,0.549-5.092,0.897
				c-1.196,0.25-2.294,0.399-3.292,0.45c-0.451,0-0.85,0.1-1.296,0.2c-4.244,1.147-7.638,3.592-9.782,7.185l-0.101,0.15
				c-0.648,0.748-1.095,1.497-1.346,2.295c-0.102,0.3-0.201,0.599-0.251,0.898l-0.099,0.35l-0.251,0.249
				c-0.497,0.399-0.947,0.848-1.397,1.298c-2.345,2.195-4.391,4.74-6.088,7.583c-1.596,2.694-2.991,5.64-4.189,8.684
				c-1.199,3.043-2.146,6.336-2.945,9.681c-0.699,3.192-1.348,6.386-1.947,9.581v0.049c-0.648,3.643-1.096,7.934-1.297,12.625
				c-0.147,3.195-0.098,6.438,0.152,9.679l0.196,2.496l-1.945-1.597c-0.648-0.547-1.395-0.948-2.244-1.147l-0.098-0.051
				c-0.651-0.147-1.3-0.196-1.948-0.147h-0.101c-0.251,0-0.549,0-0.799,0.049c-0.198,0.049-0.449,0.099-0.697,0.149l-1.498,0.4
				l0.251-2.296c0.049-0.352,0.049-0.7,0.1-1.049c0-0.199,0.05-0.397,0.05-0.548v-0.052c0.146-1.896,0.098-2.893,0-3.892v-0.1
				v-0.099c0-0.1,0.049-0.3,0.049-0.549c0.098-0.899,0.201-1.796,0.25-2.694c0.05-0.649,0.099-1.348,0.147-1.797
				c0.104-0.649,0.152-0.947,0.201-1.097l0.05-0.15c0.101-0.25,0.25-0.648,0.398-1.148c0.65-2.445,1.1-5.14,1.298-7.935v-0.15
				l0.053-0.1c0.098-0.299,0.196-0.548,0.248-0.849c0.049-0.249,0.149-0.548,0.3-0.798c0.296-0.748,0.449-1.596,0.399-2.395v-0.299
				l0.147-0.249c0.698-1.397,0.801-2.994,0.3-4.442c-0.05-0.199-0.149-0.399-0.149-0.598l-0.049-0.3l0.1-0.249
				c0.848-2.346,1.047-4.891,0.548-7.486c0-0.1-0.051-0.15-0.051-0.25l-0.148-0.549l0.3-0.399c0.447-0.648,0.799-1.348,0.948-2.046
				c0.349-1.397,0.498-2.843,0.498-4.341v-0.249l0.102-0.2c0.446-1.047,0.599-2.245,0.397-3.343l-0.049-0.25l0.049-0.249
				c0.201-0.898,0.3-1.796,0.251-2.695c-0.05-1.995-0.948-3.893-2.545-5.339c-0.399-0.349-0.801-0.648-1.247-0.849l-0.648-0.3
				l0.049-0.748c0.099-0.899,0.05-1.797-0.101-2.646v-0.15v-0.149c0.052-0.697,0-1.347-0.198-1.996v-0.1
				c-0.05-0.2-0.05-0.399-0.102-0.549l-0.049-0.15c-0.052-0.648-0.248-1.298-0.498-1.946l-0.05-0.099
				c-0.103-0.3-0.251-0.6-0.4-0.899c-0.199-0.349-0.4-0.648-0.651-0.948l-0.098-0.099c-0.697-1.098-1.746-1.996-2.993-2.395
				c-0.499-0.2-1.05-0.3-1.648-0.4l0.101-1.047l-0.149,1.047c-0.251-0.049-0.6-0.049-0.998-0.099
				c-1.944-0.15-3.743,0.649-4.94,2.146c-0.399,0.498-0.648,0.997-0.898,1.596l-0.05,0.099c-0.3,0.6-0.5,1.298-0.549,1.997
				c0,0.099,0,0.148,0,0.249v0.15l-0.051,0.149c-0.099,0.35-0.199,0.699-0.249,1.049v0.099l-0.051,0.1
				c-0.249,0.599-0.349,1.198-0.399,1.796v0.15l-0.049,0.099c-0.2,0.699-0.35,1.397-0.398,2.096l-0.051,0.2l-0.2,0.748l-0.549,0.2
				c-0.399,0.15-0.748,0.3-1.098,0.499c-1.896,1.148-3.144,2.945-3.442,5.04c-0.15,0.899-0.15,1.796-0.101,2.694v0.201l-0.049,0.25
				c-0.35,1.097-0.399,2.294-0.05,3.393l0.05,0.2l-0.05,0.249c-0.199,1.447-0.25,2.944-0.1,4.392c0.1,0.798,0.349,1.596,0.748,2.295
				l0.3,0.499l-0.249,0.5c-0.699,1.546-1.149,3.293-1.297,5.09c-0.15,1.695-0.201,3.492-0.25,5.289l-0.049,4.989
				c0,1.148-0.149,2.196-0.399,3.095c-0.201,0.748-0.25,1.498-0.201,2.245c0.051,0.25,0.051,0.449,0.051,0.649l0.099,0.148
				l-0.2,0.549c-0.549,1.646-0.748,3.343-0.499,5.14v0.199l-0.05,0.2c0,0.099-0.049,0.199-0.049,0.299l-0.051,0.1
				c-0.15,0.449-0.199,0.897-0.249,1.347c-0.05,0.849-0.149,1.597-0.299,2.445c-0.1,0.65-0.199,1.398-0.3,2.246v0.049
				c-0.148,0.849-0.249,1.746-0.099,2.743v0.152l-0.25,1.896c0,0.098-0.05,0.25-0.05,0.397l-0.1,0.749
				c-0.05,0.349-0.05,0.6-0.1,0.749l-0.101,0.997c-0.099,1.05-0.199,2.146-0.249,3.293c0,0.053,0,0.15,0,0.2c0,0.348,0,0.7,0,1.1
				l0.05,2.594l-1.847-1.797c-0.049-0.051-0.099-0.1-0.149-0.148l-0.05-0.052c-0.05-0.049-0.1-0.101-0.149-0.15
				c-0.649-0.55-1.348-0.947-2.097-1.146l-0.1-0.052c-0.548-0.146-1.047-0.248-1.596-0.248h-0.05h-1.047v-1.048
				c0-1.994-0.25-4.093-0.699-6.238c0-0.049-0.051-0.099-0.051-0.196c-0.748-3.097-2.095-5.94-3.892-8.436
				c-1.547-2.146-3.144-4.042-4.69-5.588c-0.399-0.399-0.798-0.699-1.297-0.948c-1.098-0.598-2.147-1.248-3.095-1.896
				c-0.449-0.3-0.948-0.6-1.446-0.898l-1.098-0.649l0.897-0.998c0.25-0.25,0.45-0.549,0.649-0.848l0.101-0.15l0.15-0.1
				c3.093-2.345,5.837-5.09,8.232-8.084c3.044-3.893,4.94-8.783,5.59-14.521c0.049-0.498,0.049-0.998,0-1.497l-0.15-0.999
				c-0.101-0.549-0.25-1.147-0.5-1.647c-0.049-0.099-0.1-0.199-0.15-0.249l-0.049-0.1l-0.05-0.149
				c-0.349-1.597-0.948-3.044-1.797-4.242c-0.549-0.798-1.147-1.597-1.695-2.295c-0.25-0.349-0.549-0.648-0.849-0.898
				c-2.146-1.846-4.74-3.244-7.736-4.191c-2.595-0.849-5.388-1.397-8.333-1.746c-2.146-0.25-4.291-0.35-6.486-0.35
				c-0.699,0-1.397,0-2.146,0.051c-1.247,0.05-2.495,0.099-3.692,0.2l-0.5,0.049l-0.349-0.349c-0.35-0.35-0.698-0.648-1.048-0.948
				c-1.597-1.247-3.442-2.096-5.488-2.545c-1.447-0.349-2.994-0.499-4.492-0.499c-0.249,0-0.498,0-0.748,0
				c-2.196,0.1-4.092,0.599-5.739,1.497c-1.347,0.75-2.295,1.947-2.744,3.444c-0.549,1.946-0.898,3.892-0.999,5.888
				c-0.049,0.648-0.049,1.398-0.049,2.096v0.598l-0.5,0.3c-2.644,1.646-5.089,3.492-7.236,5.489
				c-2.844,2.595-5.738,5.238-8.532,7.833c-1.847,1.697-2.345,4.492-1.248,6.737c0.999,1.946,2.944,3.194,5.139,3.194
				c0.351,0,0.649-0.05,0.999-0.1c0.699-0.101,1.397-0.3,2.096-0.5l0.299-0.1l0.299,0.1c0.549,0.2,1.148,0.299,1.746,0.35
				c0.05,0,0.15,0,0.201,0c0.798,0,1.596-0.15,2.345-0.399l1.646-0.549l-0.2,1.696c-0.199,1.397-0.449,2.745-0.798,3.992l-0.05,0.1
				l-0.049,0.1c-0.5,0.899-0.849,1.897-1.049,2.895l-0.099,0.499l-0.549,0.3c-1.296,0.697-2.445,1.396-3.393,1.995
				c-0.299,0.199-0.599,0.349-0.897,0.549c-0.948,0.549-1.797,1.198-2.546,1.996l-0.049,0.051c-1.098,1.247-1.748,2.844-1.897,4.541
				v0.3l-0.148,0.249c-0.101,0.15-0.2,0.298-0.25,0.448l-0.049,0.051c-0.15,0.2-0.25,0.398-0.35,0.648
				c-0.15,0.299-0.3,0.65-0.399,0.999l-0.099,0.349l-0.25,0.2c-1.348,1.098-2.396,2.495-3.144,4.142
				c-1.049,2.443-0.35,5.239,1.746,6.836c1.347,1.048,2.943,1.596,4.541,1.596c0.499,0,0.998-0.049,1.497-0.147L14.98,108.606z"/>
		</g>
		<g id="XMLID_1422_">
			<path id="XMLID_1569_" fill="#FFFFFF" d="M113.781,114.145l-0.098-0.052c0,0.052,0.049,0.052,0.049,0.101L113.781,114.145z"/>
		</g>
	</g>
</g>
</svg>
